<svg width="32" height="32" viewBox="0 0 32 32" fill="none" xmlns="http://www.w3.org/2000/svg">
<path d="M23.5425 22.2091C22.1791 23.5725 19.1914 26.5602 17.4127 28.3389C16.6317 29.12 15.3687 29.1203 14.5876 28.3392C12.8387 26.5903 9.91308 23.6647 8.45754 22.2091C4.29195 18.0435 4.29195 11.2898 8.45754 7.12419C12.6231 2.9586 19.3769 2.9586 23.5425 7.12419C27.7081 11.2898 27.7081 18.0435 23.5425 22.2091Z" stroke="#070707" stroke-width="2" stroke-linecap="round" stroke-linejoin="round"/>
<path d="M20 14.6667C20 16.8758 18.2091 18.6667 16 18.6667C13.7909 18.6667 12 16.8758 12 14.6667C12 12.4575 13.7909 10.6667 16 10.6667C18.2091 10.6667 20 12.4575 20 14.6667Z" stroke="#070707" stroke-width="2" stroke-linecap="round" stroke-linejoin="round"/>
</svg>
