<svg width="40" height="41" viewBox="0 0 40 41" fill="none" xmlns="http://www.w3.org/2000/svg">
<path d="M21 24.5V14.5C21 13.9477 20.5523 13.5 20 13.5H12C11.4477 13.5 11 13.9477 11 14.5V24.5C11 25.0523 11.4477 25.5 12 25.5H13M21 24.5C21 25.0523 20.5523 25.5 20 25.5H17M21 24.5L21 16.5C21 15.9477 21.4477 15.5 22 15.5H24.5858C24.851 15.5 25.1054 15.6054 25.2929 15.7929L28.7071 19.2071C28.8946 19.3946 29 19.649 29 19.9142V24.5C29 25.0523 28.5523 25.5 28 25.5H27M21 24.5C21 25.0523 21.4477 25.5 22 25.5H23M13 25.5C13 26.6046 13.8954 27.5 15 27.5C16.1046 27.5 17 26.6046 17 25.5M13 25.5C13 24.3954 13.8954 23.5 15 23.5C16.1046 23.5 17 24.3954 17 25.5M23 25.5C23 26.6046 23.8954 27.5 25 27.5C26.1046 27.5 27 26.6046 27 25.5M23 25.5C23 24.3954 23.8954 23.5 25 23.5C26.1046 23.5 27 24.3954 27 25.5" stroke="#070707"/>
<circle cx="20" cy="20.5" r="19.5" stroke="#070707"/>
</svg>
