<svg width="48" height="48" viewBox="0 0 48 48" fill="none" xmlns="http://www.w3.org/2000/svg">
<path fill-rule="evenodd" clip-rule="evenodd" d="M12 12.0008C12 8.02433 15.2235 4.80078 19.2 4.80078C21.044 4.80078 22.7262 5.49403 24 6.63413C25.2738 5.49403 26.9559 4.80078 28.8 4.80078C32.7764 4.80078 36 8.02433 36 12.0008C36 12.8423 35.8556 13.6501 35.5903 14.4008H38.4C41.051 14.4008 43.2 16.5498 43.2 19.2008C43.2 21.8517 41.051 24.0008 38.4 24.0008H26.4V21.6008C26.4 20.2753 25.3255 19.2008 24 19.2008C22.6745 19.2008 21.6 20.2753 21.6 21.6008V24.0008H9.59999C6.94902 24.0008 4.79999 21.8517 4.79999 19.2008C4.79999 16.5498 6.94902 14.4008 9.59999 14.4008H12.4097C12.1444 13.6501 12 12.8423 12 12.0008ZM21.6 14.4008V12.0008C21.6 10.6753 20.5255 9.60078 19.2 9.60078C17.8745 9.60078 16.8 10.6753 16.8 12.0008C16.8 13.3263 17.8745 14.4008 19.2 14.4008H21.6ZM28.8 14.4008C30.1255 14.4008 31.2 13.3263 31.2 12.0008C31.2 10.6753 30.1255 9.60078 28.8 9.60078C27.4745 9.60078 26.4 10.6753 26.4 12.0008V14.4008H28.8Z" fill="#0B3C7F"/>
<path d="M21.6 26.4008H7.19999V38.4008C7.19999 41.0518 9.34902 43.2008 12 43.2008H21.6V26.4008Z" fill="#0B3C7F"/>
<path d="M26.4 43.2008H36C38.651 43.2008 40.8 41.0518 40.8 38.4008V26.4008H26.4V43.2008Z" fill="#0B3C7F"/>
</svg>
