<svg width="48" height="48" viewBox="0 0 48 48" fill="none" xmlns="http://www.w3.org/2000/svg">
<path d="M19.2 21.5992C23.1764 21.5992 26.4 18.3757 26.4 14.3992C26.4 10.4228 23.1764 7.19922 19.2 7.19922C15.2235 7.19922 12 10.4228 12 14.3992C12 18.3757 15.2235 21.5992 19.2 21.5992Z" fill="#0B3C7F"/>
<path d="M19.2 26.3992C27.1529 26.3992 33.6 32.8463 33.6 40.7992H4.79999C4.79999 32.8463 11.2471 26.3992 19.2 26.3992Z" fill="#0B3C7F"/>
<path d="M38.4 16.7992C38.4 15.4737 37.3255 14.3992 36 14.3992C34.6745 14.3992 33.6 15.4737 33.6 16.7992V19.1992H31.2C29.8745 19.1992 28.8 20.2737 28.8 21.5992C28.8 22.9247 29.8745 23.9992 31.2 23.9992H33.6V26.3992C33.6 27.7247 34.6745 28.7992 36 28.7992C37.3255 28.7992 38.4 27.7247 38.4 26.3992V23.9992H40.8C42.1255 23.9992 43.2 22.9247 43.2 21.5992C43.2 20.2737 42.1255 19.1992 40.8 19.1992H38.4V16.7992Z" fill="#0B3C7F"/>
</svg>
