<svg width="48" height="48" viewBox="0 0 48 48" fill="none" xmlns="http://www.w3.org/2000/svg">
<path fill-rule="evenodd" clip-rule="evenodd" d="M12 4.80078C9.34905 4.80078 7.20001 6.94981 7.20001 9.60078V43.2008L15.6 38.4008L24 43.2008L32.4 38.4008L40.8 43.2008V9.60078C40.8 6.94981 38.651 4.80078 36 4.80078H12ZM18 12.0008C16.0118 12.0008 14.4 13.6126 14.4 15.6008C14.4 17.589 16.0118 19.2008 18 19.2008C19.9882 19.2008 21.6 17.589 21.6 15.6008C21.6 13.6126 19.9882 12.0008 18 12.0008ZM32.8971 12.7037C31.9598 11.7665 30.4402 11.7665 29.503 12.7037L15.103 27.1037C14.1657 28.041 14.1657 29.5606 15.103 30.4978C16.0402 31.4351 17.5598 31.4351 18.4971 30.4978L32.8971 16.0978C33.8343 15.1606 33.8343 13.641 32.8971 12.7037ZM30 24.0008C28.0118 24.0008 26.4 25.6126 26.4 27.6008C26.4 29.589 28.0118 31.2008 30 31.2008C31.9882 31.2008 33.6 29.589 33.6 27.6008C33.6 25.6126 31.9882 24.0008 30 24.0008Z" fill="#0B3C7F"/>
</svg>
