<svg width="48" height="48" viewBox="0 0 48 48" fill="none" xmlns="http://www.w3.org/2000/svg">
<path d="M21.6 4.80078C20.2745 4.80078 19.2 5.8753 19.2 7.20078C19.2 8.52626 20.2745 9.60078 21.6 9.60078H26.4C27.7255 9.60078 28.8 8.52626 28.8 7.20078C28.8 5.8753 27.7255 4.80078 26.4 4.80078H21.6Z" fill="#0B3C7F"/>
<path fill-rule="evenodd" clip-rule="evenodd" d="M9.60001 12.0008C9.60001 9.34981 11.749 7.20078 14.4 7.20078C14.4 11.1772 17.6236 14.4008 21.6 14.4008H26.4C30.3765 14.4008 33.6 11.1772 33.6 7.20078C36.251 7.20078 38.4 9.34981 38.4 12.0008V38.4008C38.4 41.0518 36.251 43.2008 33.6 43.2008H14.4C11.749 43.2008 9.60001 41.0518 9.60001 38.4008V12.0008ZM16.8 21.6008C15.4745 21.6008 14.4 22.6753 14.4 24.0008C14.4 25.3263 15.4745 26.4008 16.8 26.4008H16.824C18.1495 26.4008 19.224 25.3263 19.224 24.0008C19.224 22.6753 18.1495 21.6008 16.824 21.6008H16.8ZM24 21.6008C22.6745 21.6008 21.6 22.6753 21.6 24.0008C21.6 25.3263 22.6745 26.4008 24 26.4008H31.2C32.5255 26.4008 33.6 25.3263 33.6 24.0008C33.6 22.6753 32.5255 21.6008 31.2 21.6008H24ZM16.8 31.2008C15.4745 31.2008 14.4 32.2753 14.4 33.6008C14.4 34.9263 15.4745 36.0008 16.8 36.0008H16.824C18.1495 36.0008 19.224 34.9263 19.224 33.6008C19.224 32.2753 18.1495 31.2008 16.824 31.2008H16.8ZM24 31.2008C22.6745 31.2008 21.6 32.2753 21.6 33.6008C21.6 34.9263 22.6745 36.0008 24 36.0008H31.2C32.5255 36.0008 33.6 34.9263 33.6 33.6008C33.6 32.2753 32.5255 31.2008 31.2 31.2008H24Z" fill="#0B3C7F"/>
</svg>
