<svg width="48" height="48" viewBox="0 0 48 48" fill="none" xmlns="http://www.w3.org/2000/svg">
<path d="M4.79999 25.2008C4.79999 23.2126 6.41176 21.6008 8.39999 21.6008C10.3882 21.6008 12 23.2126 12 25.2008V39.6008C12 41.589 10.3882 43.2008 8.39999 43.2008C6.41176 43.2008 4.79999 41.589 4.79999 39.6008V25.2008Z" fill="#0B3C7F"/>
<path d="M14.4 24.8008V37.8342C14.4 39.6523 15.4272 41.3144 17.0534 42.1275L17.173 42.1873C18.506 42.8538 19.9759 43.2008 21.4662 43.2008H34.4649C36.753 43.2008 38.723 41.5858 39.1717 39.3421L42.0517 24.9421C42.6458 21.9719 40.374 19.2008 37.3449 19.2008H28.8V9.60078C28.8 6.94981 26.651 4.80078 24 4.80078C22.6745 4.80078 21.6 5.8753 21.6 7.20078V8.80078C21.6 10.8779 20.9263 12.8991 19.68 14.5608L16.32 19.0408C15.0737 20.7025 14.4 22.7236 14.4 24.8008Z" fill="#0B3C7F"/>
</svg>
