<svg width="48" height="48" viewBox="0 0 48 48" fill="none" xmlns="http://www.w3.org/2000/svg">
<path d="M24.2071 25.3671V19.8951C24.2033 18.6203 23.6422 17.4109 22.6712 16.5851C21.0255 15.1775 20.0877 13.1134 20.1099 10.9481C20.1322 8.78243 21.112 6.73811 22.7863 5.36456C23.0245 5.17572 23.3496 5.1401 23.6231 5.27269C23.8963 5.40528 24.0696 5.68278 24.0688 5.98651V9.35803C24.0688 9.91411 24.2898 10.4474 24.683 10.8406C25.0762 11.2338 25.6096 11.4548 26.1656 11.4548H28.7229C29.2789 11.4548 29.8122 11.2338 30.2054 10.8406C30.5986 10.4474 30.8196 9.91408 30.8196 9.35803V5.98651C30.8186 5.68276 30.9919 5.40526 31.2653 5.27269C31.5388 5.1401 31.864 5.17572 32.1021 5.36456C33.7762 6.73811 34.7563 8.78243 34.7785 10.9481C34.8008 13.1134 33.863 15.1775 32.2173 16.5851C31.2466 17.4112 30.6856 18.6206 30.6814 19.8951V25.3671H24.2071ZM28.9918 40.5543C30.7572 40.5602 32.4386 39.7995 33.5997 38.4693L41.7632 29.1265C42.2166 28.6058 42.4406 27.9238 42.3843 27.2357C42.3278 26.5473 41.9959 25.9109 41.4637 25.4708C41.0174 25.1028 40.4563 24.9029 39.8777 24.9064C39.1028 24.9096 38.3659 25.2418 37.8503 25.8203L34.0103 30.102V30.1634C33.9541 31.3114 33.4572 32.3935 32.6231 33.1845C31.7893 33.9758 30.6822 34.4148 29.5329 34.4105H24.8328C24.3027 34.4105 23.8728 33.9806 23.8728 33.4505C23.8728 32.9202 24.3027 32.4905 24.8328 32.4905H29.5329C30.1864 32.5004 30.8186 32.2575 31.2972 31.8123C31.7761 31.3674 32.0644 30.7545 32.1018 30.1021C32.1227 29.4348 31.872 28.788 31.4075 28.3088C30.9428 27.8299 30.3039 27.5596 29.6365 27.5599H21.8104L20.5434 27.1182C18.9792 26.5699 17.2919 26.4729 15.6751 26.8383C14.0583 27.2036 12.5768 28.0166 11.4004 29.1842L5.60959 34.9442L13.6887 42.8203L15.9349 40.5547L28.9918 40.5543Z" fill="#0B3C7F"/>
</svg>
