<svg width="48" height="48" viewBox="0 0 48 48" fill="none" xmlns="http://www.w3.org/2000/svg">
<path d="M19.2 39.5996C19.2 41.5878 17.5882 43.1996 15.6 43.1996C13.6118 43.1996 12 41.5878 12 39.5996C12 37.6114 13.6118 35.9996 15.6 35.9996C17.5882 35.9996 19.2 37.6114 19.2 39.5996Z" fill="#0B3C7F"/>
<path d="M36 39.5996C36 41.5878 34.3882 43.1996 32.4 43.1996C30.4118 43.1996 28.8 41.5878 28.8 39.5996C28.8 37.6114 30.4118 35.9996 32.4 35.9996C34.3882 35.9996 36 37.6114 36 39.5996Z" fill="#0B3C7F"/>
<path d="M7.19999 9.59961C5.8745 9.59961 4.79999 10.6741 4.79999 11.9996V35.9996C4.79999 37.3251 5.8745 38.3996 7.19999 38.3996H9.72001C10.2759 35.6609 12.6972 33.5996 15.6 33.5996C18.5027 33.5996 20.924 35.6609 21.48 38.3996H24C25.3255 38.3996 26.4 37.3251 26.4 35.9996V11.9996C26.4 10.6741 25.3255 9.59961 24 9.59961H7.19999Z" fill="#0B3C7F"/>
<path d="M33.6 16.7996C32.2745 16.7996 31.2 17.8741 31.2 19.1996V33.7196C31.5877 33.6409 31.989 33.5996 32.4 33.5996C35.3027 33.5996 37.724 35.6609 38.28 38.3996H40.8C42.1255 38.3996 43.2 37.3251 43.2 35.9996V23.9996C43.2 23.3631 42.9471 22.7526 42.497 22.3026L37.697 17.5026C37.247 17.0525 36.6365 16.7996 36 16.7996H33.6Z" fill="#0B3C7F"/>
</svg>
