<svg width="48" height="48" viewBox="0 0 48 48" fill="none" xmlns="http://www.w3.org/2000/svg">
<path fill-rule="evenodd" clip-rule="evenodd" d="M42.497 22.3037C43.4343 23.241 43.4343 24.7606 42.497 25.6978L25.697 42.4978C24.7598 43.4351 23.2402 43.4351 22.3029 42.4978L5.50293 25.6978C5.03423 25.2291 4.79991 24.6148 4.79999 24.0005V12.0008C4.79999 8.02433 8.02354 4.80078 12 4.80078H24.0006C24.6146 4.80095 25.2286 5.03526 25.697 5.50372L42.497 22.3037ZM12 14.4008C13.3255 14.4008 14.4 13.3263 14.4 12.0008C14.4 10.6753 13.3255 9.60078 12 9.60078C10.6745 9.60078 9.59999 10.6753 9.59999 12.0008C9.59999 13.3263 10.6745 14.4008 12 14.4008Z" fill="#0B3C7F"/>
</svg>
