<svg width="48" height="48" viewBox="0 0 48 48" fill="none" xmlns="http://www.w3.org/2000/svg">
<path d="M24 4.80078C22.6745 4.80078 21.6 5.8753 21.6 7.20078V9.60078C21.6 10.9263 22.6745 12.0008 24 12.0008C25.3255 12.0008 26.4 10.9263 26.4 9.60078V7.20078C26.4 5.8753 25.3255 4.80078 24 4.80078Z" fill="#0B3C7F"/>
<path fill-rule="evenodd" clip-rule="evenodd" d="M9.59999 9.60078H16.8C16.8 13.5772 20.0235 16.8008 24 16.8008C27.9764 16.8008 31.2 13.5772 31.2 9.60078H38.4C41.051 9.60078 43.2 11.7498 43.2 14.4008V36.0008C43.2 38.6517 41.051 40.8008 38.4 40.8008H9.59999C6.94902 40.8008 4.79999 38.6517 4.79999 36.0008V14.4008C4.79999 11.7498 6.94902 9.60078 9.59999 9.60078ZM15.6 26.4008C17.5882 26.4008 19.2 24.789 19.2 22.8008C19.2 20.8126 17.5882 19.2008 15.6 19.2008C13.6118 19.2008 12 20.8126 12 22.8008C12 24.789 13.6118 26.4008 15.6 26.4008ZM21.4811 36.0008C21.5598 35.6131 21.6012 35.2117 21.6012 34.8008C21.6012 31.4871 18.9149 28.8008 15.6012 28.8008C12.2875 28.8008 9.60116 31.4871 9.60116 34.8008C9.60116 35.2117 9.64248 35.6131 9.72118 36.0008H21.4811ZM28.8 21.6008C27.4745 21.6008 26.4 22.6753 26.4 24.0008C26.4 25.3263 27.4745 26.4008 28.8 26.4008H36C37.3255 26.4008 38.4 25.3263 38.4 24.0008C38.4 22.6753 37.3255 21.6008 36 21.6008H28.8ZM26.4 31.2008C26.4 29.8753 27.4745 28.8008 28.8 28.8008H33.6C34.9255 28.8008 36 29.8753 36 31.2008C36 32.5263 34.9255 33.6008 33.6 33.6008H28.8C27.4745 33.6008 26.4 32.5263 26.4 31.2008Z" fill="#0B3C7F"/>
</svg>
