<svg width="48" height="48" viewBox="0 0 48 48" fill="none" xmlns="http://www.w3.org/2000/svg">
<path fill-rule="evenodd" clip-rule="evenodd" d="M27.1215 2.51159C28.1206 2.82652 28.8 3.75304 28.8 4.80056V16.8006L38.4 16.8006C39.2949 16.8006 40.1155 17.2985 40.5287 18.0922C40.942 18.886 40.8793 19.8437 40.3661 20.5769L23.5661 44.5769C22.9654 45.435 21.8775 45.8045 20.8785 45.4895C19.8794 45.1746 19.2 44.2481 19.2 43.2006L19.2 31.2006H9.59999C8.70509 31.2006 7.88451 30.7027 7.47124 29.9089C7.05797 29.1152 7.12064 28.1574 7.63383 27.4243L24.4338 3.42426C25.0345 2.56609 26.1225 2.19667 27.1215 2.51159Z" fill="#0B3C7F"/>
</svg>
