<svg width="48" height="48" viewBox="0 0 48 48" fill="none" xmlns="http://www.w3.org/2000/svg">
<path d="M14.6952 17.4008L16.5936 4.80078H6.72002L2.59442 15.6008C2.46722 15.9848 2.40002 16.3832 2.40002 16.8008C2.40002 19.4504 5.16002 21.6008 8.57042 21.6008C11.7144 21.6008 14.3136 19.7672 14.6952 17.4008ZM24 21.6008C27.408 21.6008 30.1704 19.4504 30.1704 16.8008C30.1704 16.7024 30.1632 16.604 30.1584 16.5104L28.9368 4.80078H19.0632L17.8392 16.5008C17.8335 16.6007 17.8303 16.7007 17.8296 16.8008C17.8296 19.4504 20.592 21.6008 24 21.6008ZM36 24.1112V33.6008H12V24.1256C10.9488 24.5048 9.79202 24.7208 8.57042 24.7208C8.10242 24.7208 7.64882 24.6656 7.20002 24.6032V39.8408C7.20002 41.6888 8.70962 43.2008 10.5552 43.2008H37.44C39.288 43.2008 40.8 41.6864 40.8 39.8408V24.6056C40.3463 24.6752 39.8885 24.7145 39.4296 24.7232C38.2594 24.722 37.0985 24.5148 36 24.1112ZM45.408 15.6008L41.2776 4.80078H31.4064L33.3024 17.3816C33.672 19.7576 36.2712 21.6008 39.4296 21.6008C42.8376 21.6008 45.6 19.4504 45.6 16.8008C45.6 16.3832 45.5328 15.9848 45.408 15.6008Z" fill="#0B3C7F"/>
</svg>
