<svg width="48" height="48" viewBox="0 0 48 48" fill="none" xmlns="http://www.w3.org/2000/svg">
<path fill-rule="evenodd" clip-rule="evenodd" d="M12 4.80078C13.3255 4.80078 14.4 5.8753 14.4 7.20078V9.60078H16.8C18.1255 9.60078 19.2 10.6753 19.2 12.0008C19.2 13.3263 18.1255 14.4008 16.8 14.4008H14.4V16.8008C14.4 18.1263 13.3255 19.2008 12 19.2008C10.6745 19.2008 9.59999 18.1263 9.59999 16.8008V14.4008H7.19999C5.8745 14.4008 4.79999 13.3263 4.79999 12.0008C4.79999 10.6753 5.8745 9.60078 7.19999 9.60078H9.59999V7.20078C9.59999 5.8753 10.6745 4.80078 12 4.80078ZM12 28.8008C13.3255 28.8008 14.4 29.8753 14.4 31.2008V33.6008H16.8C18.1255 33.6008 19.2 34.6753 19.2 36.0008C19.2 37.3263 18.1255 38.4008 16.8 38.4008H14.4V40.8008C14.4 42.1263 13.3255 43.2008 12 43.2008C10.6745 43.2008 9.59999 42.1263 9.59999 40.8008V38.4008H7.19999C5.8745 38.4008 4.79999 37.3263 4.79999 36.0008C4.79999 34.6753 5.8745 33.6008 7.19999 33.6008H9.59999V31.2008C9.59999 29.8753 10.6745 28.8008 12 28.8008Z" fill="#0B3C7F"/>
<path fill-rule="evenodd" clip-rule="evenodd" d="M28.7999 4.80078C29.8888 4.80078 30.8413 5.53394 31.12 6.58664L33.9501 17.2782L41.9992 21.9219C42.7421 22.3506 43.1999 23.1431 43.1999 24.0008C43.1999 24.8585 42.7421 25.651 41.9992 26.0796L33.9501 30.7234L31.12 41.4149C30.8413 42.4676 29.8888 43.2008 28.7999 43.2008C27.7109 43.2008 26.7584 42.4676 26.4798 41.4149L23.6496 30.7233L15.6006 26.0796C14.8577 25.651 14.4 24.8585 14.4 24.0008C14.4 23.1431 14.8577 22.3506 15.6006 21.9219L23.6496 17.2782L26.4798 6.58664C26.7584 5.53394 27.7109 4.80078 28.7999 4.80078Z" fill="#0B3C7F"/>
</svg>
