<svg width="48" height="48" viewBox="0 0 48 48" fill="none" xmlns="http://www.w3.org/2000/svg">
<path d="M20.2401 17.8036C20.6116 17.5559 21.0705 17.3345 21.6 17.1632L21.6 21.2384C21.0705 21.067 20.6116 20.8456 20.2401 20.598C19.3662 20.0154 19.2 19.4741 19.2 19.2008C19.2 18.9274 19.3662 18.3862 20.2401 17.8036Z" fill="#0B3C7F"/>
<path d="M26.4 30.8384L26.4 26.7632C26.9295 26.9346 27.3884 27.1559 27.7599 27.4036C28.6338 27.9862 28.8 28.5274 28.8 28.8008C28.8 29.0741 28.6338 29.6154 27.7599 30.198C27.3884 30.4456 26.9295 30.667 26.4 30.8384Z" fill="#0B3C7F"/>
<path fill-rule="evenodd" clip-rule="evenodd" d="M24 43.2008C34.6039 43.2008 43.2 34.6046 43.2 24.0008C43.2 13.3969 34.6039 4.80078 24 4.80078C13.3961 4.80078 4.79999 13.3969 4.79999 24.0008C4.79999 34.6046 13.3961 43.2008 24 43.2008ZM26.4 12.0008C26.4 10.6753 25.3255 9.60078 24 9.60078C22.6745 9.60078 21.6 10.6753 21.6 12.0008V12.2216C20.1082 12.5017 18.7283 13.0426 17.5775 13.8097C15.8455 14.9644 14.4 16.8232 14.4 19.2008C14.4 21.5784 15.8455 23.4371 17.5775 24.5918C18.7283 25.359 20.1082 25.8998 21.6 26.18L21.6 30.839C20.6616 30.5343 19.966 30.0773 19.576 29.6279C18.7073 28.6267 17.1915 28.5194 16.1904 29.3881C15.1892 30.2568 15.0819 31.7725 15.9505 32.7737C17.3005 34.3295 19.3429 35.3548 21.6 35.7791L21.6 36.0007C21.6 37.3262 22.6745 38.4008 23.9999 38.4008C25.3254 38.4008 26.4 37.3263 26.4 36.0008L26.4 35.78C27.8918 35.4998 29.2717 34.959 30.4225 34.1918C32.1545 33.0371 33.6 31.1784 33.6 28.8008C33.6 26.4232 32.1545 24.5644 30.4225 23.4097C29.2717 22.6426 27.8918 22.1017 26.4 21.8216L26.4 17.1626C27.3384 17.4673 28.034 17.9242 28.424 18.3737C29.2927 19.3748 30.8085 19.4822 31.8097 18.6135C32.8108 17.7448 32.9182 16.229 32.0495 15.2279C30.6995 13.6721 28.6571 12.6467 26.4 12.2224V12.0008Z" fill="#0B3C7F"/>
</svg>
