<svg width="80" height="80" viewBox="0 0 80 80" fill="none" xmlns="http://www.w3.org/2000/svg">
<path fill-rule="evenodd" clip-rule="evenodd" d="M33.0277 12.3943C36.0862 6.9571 43.9145 6.9571 46.9729 12.3943L69.2942 52.0765C72.2939 57.4093 68.4402 63.9986 62.3216 63.9986H17.6791C11.5605 63.9986 7.7068 57.4093 10.7065 52.0765L33.0277 12.3943ZM44 51.999C44 54.2082 42.2091 55.999 40 55.999C37.7909 55.999 36 54.2082 36 51.999C36 49.7899 37.7909 47.999 40 47.999C42.2091 47.999 44 49.7899 44 51.999ZM40 19.999C37.7909 19.999 36 21.7899 36 23.999V35.999C36 38.2082 37.7909 39.999 40 39.999C42.2091 39.999 44 38.2082 44 35.999V23.999C44 21.7899 42.2091 19.999 40 19.999Z" fill="#CB3A31"/>
</svg>
