<svg width="60" height="66" viewBox="0 0 60 66" fill="none" xmlns="http://www.w3.org/2000/svg">
<path d="M20.828 30.2383C23.5369 28.7072 26.6664 27.8333 30 27.8333C33.3336 27.8333 36.4631 28.7072 39.172 30.2383M34 19.8333C34 22.0425 32.2091 23.8333 30 23.8333C27.7909 23.8333 26 22.0425 26 19.8333C26 17.6242 27.7909 15.8333 30 15.8333C32.2091 15.8333 34 17.6242 34 19.8333ZM42 22.5C42 29.1274 36.6274 34.5 30 34.5C23.3726 34.5 18 29.1274 18 22.5C18 15.8726 23.3726 10.5 30 10.5C36.6274 10.5 42 15.8726 42 22.5Z" stroke="#7C7C7C" stroke-width="2" stroke-linecap="round" stroke-linejoin="round"/>
<path d="M7.9011 56.5H6.79315L9.99769 47.7727H11.0886L14.2931 56.5H13.1852L10.5772 49.1534H10.5091L7.9011 56.5ZM8.31019 53.0909H12.7761V54.0284H8.31019V53.0909ZM18.1752 56.6364C17.5616 56.6364 17.0332 56.4915 16.59 56.2017C16.1468 55.9119 15.8059 55.5128 15.5673 55.0043C15.3287 54.4957 15.2093 53.9148 15.2093 53.2614C15.2093 52.5966 15.3315 52.0099 15.5758 51.5014C15.823 50.9901 16.1667 50.5909 16.6071 50.304C17.0502 50.0142 17.5673 49.8693 18.1582 49.8693C18.6184 49.8693 19.0332 49.9545 19.4025 50.125C19.7718 50.2955 20.0744 50.5341 20.3102 50.8409C20.546 51.1477 20.6923 51.5057 20.7491 51.9148H19.7434C19.6667 51.6165 19.4963 51.3523 19.2321 51.1222C18.9707 50.8892 18.6184 50.7727 18.1752 50.7727C17.7832 50.7727 17.4395 50.875 17.144 51.0795C16.8514 51.2812 16.6227 51.5668 16.4579 51.9361C16.296 52.3026 16.215 52.733 16.215 53.2273C16.215 53.733 16.2946 54.1733 16.4537 54.5483C16.6156 54.9233 16.8429 55.2145 17.1355 55.4219C17.4309 55.6293 17.7775 55.733 18.1752 55.733C18.4366 55.733 18.6738 55.6875 18.8869 55.5966C19.1 55.5057 19.2804 55.375 19.4281 55.2045C19.5758 55.0341 19.6809 54.8295 19.7434 54.5909H20.7491C20.6923 54.9773 20.5517 55.3253 20.3272 55.6349C20.1056 55.9418 19.8116 56.1861 19.4451 56.3679C19.0815 56.5469 18.6582 56.6364 18.1752 56.6364ZM24.8784 56.6364C24.2647 56.6364 23.7363 56.4915 23.2931 56.2017C22.85 55.9119 22.5091 55.5128 22.2704 55.0043C22.0318 54.4957 21.9125 53.9148 21.9125 53.2614C21.9125 52.5966 22.0346 52.0099 22.2789 51.5014C22.5261 50.9901 22.8699 50.5909 23.3102 50.304C23.7534 50.0142 24.2704 49.8693 24.8613 49.8693C25.3216 49.8693 25.7363 49.9545 26.1056 50.125C26.475 50.2955 26.7775 50.5341 27.0133 50.8409C27.2491 51.1477 27.3954 51.5057 27.4522 51.9148H26.4466C26.3699 51.6165 26.1994 51.3523 25.9352 51.1222C25.6738 50.8892 25.3216 50.7727 24.8784 50.7727C24.4863 50.7727 24.1426 50.875 23.8471 51.0795C23.5545 51.2812 23.3258 51.5668 23.161 51.9361C22.9991 52.3026 22.9181 52.733 22.9181 53.2273C22.9181 53.733 22.9977 54.1733 23.1568 54.5483C23.3187 54.9233 23.546 55.2145 23.8386 55.4219C24.1341 55.6293 24.4806 55.733 24.8784 55.733C25.1397 55.733 25.377 55.6875 25.59 55.5966C25.8031 55.5057 25.9835 55.375 26.1312 55.2045C26.2789 55.0341 26.3841 54.8295 26.4466 54.5909H27.4522C27.3954 54.9773 27.2548 55.3253 27.0304 55.6349C26.8088 55.9418 26.5147 56.1861 26.1483 56.3679C25.7846 56.5469 25.3613 56.6364 24.8784 56.6364ZM31.5815 56.6364C30.9906 56.6364 30.4721 56.4957 30.0261 56.2145C29.5829 55.9332 29.2363 55.5398 28.9863 55.0341C28.7392 54.5284 28.6156 53.9375 28.6156 53.2614C28.6156 52.5795 28.7392 51.9844 28.9863 51.4759C29.2363 50.9673 29.5829 50.5724 30.0261 50.2912C30.4721 50.0099 30.9906 49.8693 31.5815 49.8693C32.1724 49.8693 32.6895 50.0099 33.1326 50.2912C33.5787 50.5724 33.9252 50.9673 34.1724 51.4759C34.4224 51.9844 34.5474 52.5795 34.5474 53.2614C34.5474 53.9375 34.4224 54.5284 34.1724 55.0341C33.9252 55.5398 33.5787 55.9332 33.1326 56.2145C32.6895 56.4957 32.1724 56.6364 31.5815 56.6364ZM31.5815 55.733C32.0304 55.733 32.3997 55.6179 32.6895 55.3878C32.9792 55.1577 33.1937 54.8551 33.3329 54.4801C33.4721 54.1051 33.5417 53.6989 33.5417 53.2614C33.5417 52.8239 33.4721 52.4162 33.3329 52.0384C33.1937 51.6605 32.9792 51.3551 32.6895 51.1222C32.3997 50.8892 32.0304 50.7727 31.5815 50.7727C31.1326 50.7727 30.7633 50.8892 30.4735 51.1222C30.1838 51.3551 29.9693 51.6605 29.8301 52.0384C29.6909 52.4162 29.6213 52.8239 29.6213 53.2614C29.6213 53.6989 29.6909 54.1051 29.8301 54.4801C29.9693 54.8551 30.1838 55.1577 30.4735 55.3878C30.7633 55.6179 31.1326 55.733 31.5815 55.733ZM40.2076 53.8239V49.9545H41.2132V56.5H40.2076V55.392H40.1394C39.986 55.7244 39.7473 56.0071 39.4235 56.2401C39.0996 56.4702 38.6905 56.5852 38.1962 56.5852C37.7871 56.5852 37.4235 56.4957 37.1053 56.3168C36.7871 56.1349 36.5371 55.8622 36.3553 55.4986C36.1735 55.1321 36.0826 54.6705 36.0826 54.1136V49.9545H37.0882V54.0455C37.0882 54.5227 37.2218 54.9034 37.4888 55.1875C37.7587 55.4716 38.1025 55.6136 38.5201 55.6136C38.7701 55.6136 39.0243 55.5497 39.2828 55.4219C39.5442 55.294 39.763 55.098 39.9391 54.8338C40.1181 54.5696 40.2076 54.233 40.2076 53.8239ZM44.0609 52.5625V56.5H43.0552V49.9545H44.0268V50.9773H44.112C44.2654 50.6449 44.4984 50.3778 44.8109 50.1761C45.1234 49.9716 45.5268 49.8693 46.0211 49.8693C46.4643 49.8693 46.8521 49.9602 47.1845 50.142C47.5169 50.321 47.7754 50.5938 47.96 50.9602C48.1447 51.3239 48.237 51.7841 48.237 52.3409V56.5H47.2314V52.4091C47.2314 51.8949 47.0978 51.4943 46.8308 51.2074C46.5637 50.9176 46.1973 50.7727 45.7314 50.7727C45.4103 50.7727 45.1234 50.8423 44.8706 50.9815C44.6206 51.1207 44.4231 51.3239 44.2782 51.5909C44.1333 51.858 44.0609 52.1818 44.0609 52.5625ZM52.9213 49.9545V50.8068H49.5293V49.9545H52.9213ZM50.5179 48.3864H51.5236V54.625C51.5236 54.9091 51.5648 55.1222 51.6472 55.2642C51.7324 55.4034 51.8404 55.4972 51.9711 55.5455C52.1046 55.5909 52.2452 55.6136 52.3929 55.6136C52.5037 55.6136 52.5946 55.608 52.6657 55.5966C52.7367 55.5824 52.7935 55.571 52.8361 55.5625L53.0407 56.4659C52.9725 56.4915 52.8773 56.517 52.7551 56.5426C52.633 56.571 52.4782 56.5852 52.2907 56.5852C52.0066 56.5852 51.7282 56.5241 51.4554 56.402C51.1855 56.2798 50.9611 56.0938 50.7821 55.8438C50.606 55.5938 50.5179 55.2784 50.5179 54.8977V48.3864Z" fill="#7C7C7C"/>
</svg>
