<svg width="60" height="65" viewBox="0 0 60 65" fill="none" xmlns="http://www.w3.org/2000/svg">
<rect width="60" height="65" rx="12" fill="#0B3C7F"/>
<path fill-rule="evenodd" clip-rule="evenodd" d="M42.8002 22C42.8002 29.0692 37.0694 34.7999 30.0002 34.7999C22.931 34.7999 17.2002 29.0692 17.2002 22C17.2002 14.9307 22.931 9.19995 30.0002 9.19995C37.0694 9.19995 42.8002 14.9307 42.8002 22ZM33.2002 17.2C33.2002 18.9673 31.7675 20.4 30.0002 20.4C28.2329 20.4 26.8002 18.9673 26.8002 17.2C26.8002 15.4326 28.2329 14 30.0002 14C31.7675 14 33.2002 15.4326 33.2002 17.2ZM30.0001 23.6C26.772 23.6 23.9905 25.5119 22.7262 28.2651C24.4866 30.3072 27.0924 31.5999 30.0002 31.5999C32.9078 31.5999 35.5136 30.3073 37.2741 28.2652C36.0097 25.5119 33.2282 23.6 30.0001 23.6Z" fill="#FDFDFD"/>
<path d="M7.40732 56H5.43004L8.44283 47.2727H10.8207L13.8292 56H11.8519L9.66584 49.267H9.59766L7.40732 56ZM7.28374 52.5696H11.9542V54.0099H7.28374V52.5696ZM17.4982 56.1278C16.8278 56.1278 16.2511 55.9858 15.7681 55.7017C15.288 55.4148 14.9187 55.017 14.6602 54.5085C14.4045 54 14.2766 53.4148 14.2766 52.7528C14.2766 52.0824 14.4059 51.4943 14.6644 50.9886C14.9258 50.4801 15.2965 50.0838 15.7766 49.7997C16.2567 49.5128 16.8278 49.3693 17.4897 49.3693C18.0607 49.3693 18.5607 49.473 18.9897 49.6804C19.4187 49.8878 19.7582 50.179 20.0082 50.554C20.2582 50.929 20.396 51.3693 20.4215 51.875H18.7085C18.6602 51.5483 18.5323 51.2855 18.3249 51.0866C18.1204 50.8849 17.8519 50.7841 17.5195 50.7841C17.2383 50.7841 16.9925 50.8608 16.7823 51.0142C16.5749 51.1648 16.413 51.3849 16.2965 51.6747C16.18 51.9645 16.1218 52.3153 16.1218 52.7273C16.1218 53.1449 16.1786 53.5 16.2923 53.7926C16.4087 54.0852 16.5721 54.3082 16.7823 54.4616C16.9925 54.6151 17.2383 54.6918 17.5195 54.6918C17.7269 54.6918 17.913 54.6491 18.0778 54.5639C18.2454 54.4787 18.3832 54.3551 18.4911 54.1932C18.6019 54.0284 18.6744 53.831 18.7085 53.6009H20.4215C20.3931 54.1009 20.2567 54.5412 20.0124 54.9219C19.771 55.2997 19.4371 55.5952 19.011 55.8082C18.5849 56.0213 18.0806 56.1278 17.4982 56.1278ZM24.5412 56.1278C23.8707 56.1278 23.294 55.9858 22.8111 55.7017C22.331 55.4148 21.9616 55.017 21.7031 54.5085C21.4474 54 21.3196 53.4148 21.3196 52.7528C21.3196 52.0824 21.4489 51.4943 21.7074 50.9886C21.9688 50.4801 22.3395 50.0838 22.8196 49.7997C23.2997 49.5128 23.8707 49.3693 24.5327 49.3693C25.1037 49.3693 25.6037 49.473 26.0327 49.6804C26.4616 49.8878 26.8011 50.179 27.0511 50.554C27.3011 50.929 27.4389 51.3693 27.4645 51.875H25.7514C25.7031 51.5483 25.5753 51.2855 25.3679 51.0866C25.1634 50.8849 24.8949 50.7841 24.5625 50.7841C24.2812 50.7841 24.0355 50.8608 23.8253 51.0142C23.6179 51.1648 23.456 51.3849 23.3395 51.6747C23.223 51.9645 23.1648 52.3153 23.1648 52.7273C23.1648 53.1449 23.2216 53.5 23.3352 53.7926C23.4517 54.0852 23.6151 54.3082 23.8253 54.4616C24.0355 54.6151 24.2812 54.6918 24.5625 54.6918C24.7699 54.6918 24.956 54.6491 25.1207 54.5639C25.2884 54.4787 25.4261 54.3551 25.5341 54.1932C25.6449 54.0284 25.7173 53.831 25.7514 53.6009H27.4645C27.4361 54.1009 27.2997 54.5412 27.0554 54.9219C26.8139 55.2997 26.4801 55.5952 26.054 55.8082C25.6278 56.0213 25.1236 56.1278 24.5412 56.1278ZM31.5842 56.1278C30.9222 56.1278 30.3498 55.9872 29.8668 55.706C29.3867 55.4219 29.016 55.027 28.7546 54.5213C28.4933 54.0128 28.3626 53.4233 28.3626 52.7528C28.3626 52.0767 28.4933 51.4858 28.7546 50.9801C29.016 50.4716 29.3867 50.0767 29.8668 49.7955C30.3498 49.5114 30.9222 49.3693 31.5842 49.3693C32.2461 49.3693 32.8171 49.5114 33.2972 49.7955C33.7802 50.0767 34.1523 50.4716 34.4137 50.9801C34.6751 51.4858 34.8058 52.0767 34.8058 52.7528C34.8058 53.4233 34.6751 54.0128 34.4137 54.5213C34.1523 55.027 33.7802 55.4219 33.2972 55.706C32.8171 55.9872 32.2461 56.1278 31.5842 56.1278ZM31.5927 54.7216C31.8938 54.7216 32.1452 54.6364 32.3469 54.4659C32.5487 54.2926 32.7006 54.0568 32.8029 53.7585C32.908 53.4602 32.9606 53.1207 32.9606 52.7401C32.9606 52.3594 32.908 52.0199 32.8029 51.7216C32.7006 51.4233 32.5487 51.1875 32.3469 51.0142C32.1452 50.8409 31.8938 50.7543 31.5927 50.7543C31.2887 50.7543 31.033 50.8409 30.8256 51.0142C30.6211 51.1875 30.4663 51.4233 30.3612 51.7216C30.2589 52.0199 30.2077 52.3594 30.2077 52.7401C30.2077 53.1207 30.2589 53.4602 30.3612 53.7585C30.4663 54.0568 30.6211 54.2926 30.8256 54.4659C31.033 54.6364 31.2887 54.7216 31.5927 54.7216ZM40.1836 53.2131V49.4545H41.9989V56H40.256V54.8111H40.1879C40.0401 55.1946 39.7944 55.5028 39.4506 55.7358C39.1097 55.9687 38.6935 56.0852 38.2021 56.0852C37.7646 56.0852 37.3796 55.9858 37.0472 55.7869C36.7148 55.5881 36.4549 55.3054 36.2674 54.9389C36.0827 54.5724 35.989 54.1335 35.9862 53.6222V49.4545H37.8015V53.2983C37.8043 53.6847 37.908 53.9901 38.1126 54.2145C38.3171 54.4389 38.5913 54.5511 38.935 54.5511C39.1538 54.5511 39.3583 54.5014 39.5487 54.402C39.739 54.2997 39.8924 54.1491 40.0089 53.9503C40.1282 53.7514 40.1864 53.5057 40.1836 53.2131ZM45.2663 52.2159V56H43.451V49.4545H45.1811V50.6094H45.2578C45.4027 50.2287 45.6456 49.9276 45.9865 49.706C46.3274 49.4815 46.7408 49.3693 47.2266 49.3693C47.6811 49.3693 48.0774 49.4688 48.4155 49.6676C48.7536 49.8665 49.0163 50.1506 49.2038 50.5199C49.3913 50.8864 49.4851 51.3239 49.4851 51.8324V56H47.6697V52.1562C47.6726 51.7557 47.5703 51.4432 47.3629 51.2188C47.1555 50.9915 46.87 50.8778 46.5064 50.8778C46.2621 50.8778 46.0462 50.9304 45.8587 51.0355C45.674 51.1406 45.5291 51.294 45.424 51.4957C45.3217 51.6946 45.2692 51.9347 45.2663 52.2159ZM54.3974 49.4545V50.8182H50.4556V49.4545H54.3974ZM51.3505 47.8864H53.1658V53.9886C53.1658 54.1562 53.1914 54.2869 53.2425 54.3807C53.2937 54.4716 53.3647 54.5355 53.4556 54.5724C53.5494 54.6094 53.6573 54.6278 53.7795 54.6278C53.8647 54.6278 53.9499 54.6207 54.0352 54.6065C54.1204 54.5895 54.1857 54.5767 54.2312 54.5682L54.5167 55.919C54.4258 55.9474 54.2979 55.9801 54.1332 56.017C53.9684 56.0568 53.7681 56.081 53.5323 56.0895C53.0948 56.1065 52.7113 56.0483 52.3817 55.9148C52.055 55.7812 51.8008 55.5739 51.619 55.2926C51.4371 55.0114 51.3477 54.6562 51.3505 54.2273V47.8864Z" fill="#FDFDFD"/>
</svg>
