<svg width="60" height="65" viewBox="0 0 60 65" fill="none" xmlns="http://www.w3.org/2000/svg">
<rect width="60" height="65" rx="12" fill="#0B3C7F"/>
<path d="M28.3999 9.19995C27.5162 9.19995 26.7999 9.9163 26.7999 10.8C26.7999 11.6836 27.5162 12.4 28.3999 12.4H31.5999C32.4836 12.4 33.1999 11.6836 33.1999 10.8C33.1999 9.9163 32.4836 9.19995 31.5999 9.19995H28.3999Z" fill="#FDFDFD"/>
<path fill-rule="evenodd" clip-rule="evenodd" d="M20.3999 14C20.3999 12.2326 21.8326 10.8 23.5999 10.8C23.5999 13.4509 25.7489 15.6 28.3999 15.6H31.5999C34.2509 15.6 36.3999 13.4509 36.3999 10.8C38.1672 10.8 39.5999 12.2326 39.5999 14V31.5999C39.5999 33.3673 38.1672 34.7999 36.3999 34.7999H23.5999C21.8326 34.7999 20.3999 33.3673 20.3999 31.5999V14ZM25.1999 20.4C24.3162 20.4 23.5999 21.1163 23.5999 22C23.5999 22.8836 24.3162 23.6 25.1999 23.6H25.2159C26.0996 23.6 26.8159 22.8836 26.8159 22C26.8159 21.1163 26.0996 20.4 25.2159 20.4H25.1999ZM29.9999 20.4C29.1162 20.4 28.3999 21.1163 28.3999 22C28.3999 22.8836 29.1162 23.6 29.9999 23.6H34.7999C35.6836 23.6 36.3999 22.8836 36.3999 22C36.3999 21.1163 35.6836 20.4 34.7999 20.4H29.9999ZM25.1999 26.8C24.3162 26.8 23.5999 27.5163 23.5999 28.4C23.5999 29.2836 24.3162 29.9999 25.1999 29.9999H25.2159C26.0996 29.9999 26.8159 29.2836 26.8159 28.4C26.8159 27.5163 26.0996 26.8 25.2159 26.8H25.1999ZM29.9999 26.8C29.1162 26.8 28.3999 27.5163 28.3999 28.4C28.3999 29.2836 29.1162 29.9999 29.9999 29.9999H34.7999C35.6836 29.9999 36.3999 29.2836 36.3999 28.4C36.3999 27.5163 35.6836 26.8 34.7999 26.8H29.9999Z" fill="#FDFDFD"/>
<path d="M15.5428 50.3281H13.6763C13.6422 50.0866 13.5726 49.8722 13.4675 49.6847C13.3624 49.4943 13.2275 49.3324 13.0627 49.1989C12.8979 49.0653 12.7076 48.9631 12.4917 48.892C12.2786 48.821 12.0471 48.7855 11.7971 48.7855C11.3453 48.7855 10.9519 48.8977 10.6167 49.1222C10.2814 49.3437 10.0215 49.6676 9.83683 50.0938C9.65217 50.517 9.55984 51.0312 9.55984 51.6364C9.55984 52.2585 9.65217 52.7812 9.83683 53.2045C10.0243 53.6278 10.2857 53.9474 10.6209 54.1634C10.9561 54.3793 11.3439 54.4872 11.7843 54.4872C12.0314 54.4872 12.2601 54.4545 12.4703 54.3892C12.6834 54.3239 12.8723 54.2287 13.0371 54.1037C13.2019 53.9759 13.3382 53.821 13.4462 53.6392C13.557 53.4574 13.6337 53.25 13.6763 53.017L15.5428 53.0256C15.4945 53.4261 15.3738 53.8125 15.1806 54.1847C14.9902 54.554 14.7331 54.8849 14.4093 55.1776C14.0882 55.4673 13.7047 55.6974 13.2587 55.8679C12.8155 56.0355 12.3141 56.1193 11.7544 56.1193C10.976 56.1193 10.28 55.9432 9.66637 55.5909C9.05558 55.2386 8.57262 54.7287 8.21751 54.0611C7.86523 53.3935 7.6891 52.5852 7.6891 51.6364C7.6891 50.6847 7.86808 49.875 8.22603 49.2074C8.58398 48.5398 9.06978 48.0312 9.68342 47.6818C10.2971 47.3295 10.9874 47.1534 11.7544 47.1534C12.2601 47.1534 12.7289 47.2244 13.1607 47.3665C13.5953 47.5085 13.9803 47.7159 14.3155 47.9886C14.6507 48.2585 14.9235 48.5895 15.1337 48.9815C15.3468 49.3736 15.4831 49.8224 15.5428 50.3281ZM18.6983 56.1236C18.2807 56.1236 17.9086 56.0511 17.5819 55.9062C17.2551 55.7585 16.9966 55.5412 16.8063 55.2543C16.6188 54.9645 16.525 54.6037 16.525 54.1719C16.525 53.8082 16.5918 53.5028 16.7253 53.2557C16.8588 53.0085 17.0407 52.8097 17.2708 52.6591C17.5009 52.5085 17.7623 52.3949 18.0549 52.3182C18.3503 52.2415 18.66 52.1875 18.9838 52.1562C19.3645 52.1165 19.6713 52.0795 19.9043 52.0455C20.1373 52.0085 20.3063 51.9545 20.4114 51.8835C20.5165 51.8125 20.5691 51.7074 20.5691 51.5682V51.5426C20.5691 51.2727 20.4838 51.0639 20.3134 50.9162C20.1458 50.7685 19.9071 50.6946 19.5975 50.6946C19.2708 50.6946 19.0108 50.767 18.8176 50.9119C18.6245 51.054 18.4966 51.233 18.4341 51.4489L16.7551 51.3125C16.8404 50.9148 17.008 50.571 17.258 50.2812C17.508 49.9886 17.8304 49.7642 18.2253 49.608C18.623 49.4489 19.0833 49.3693 19.606 49.3693C19.9696 49.3693 20.3176 49.4119 20.65 49.4972C20.9853 49.5824 21.2821 49.7145 21.5407 49.8935C21.802 50.0724 22.008 50.3026 22.1586 50.5838C22.3091 50.8622 22.3844 51.196 22.3844 51.5852V56H20.6628V55.0923H20.6117C20.5066 55.2969 20.3659 55.4773 20.1898 55.6335C20.0137 55.7869 19.802 55.9077 19.5549 55.9957C19.3077 56.081 19.0222 56.1236 18.6983 56.1236ZM19.2182 54.8707C19.4853 54.8707 19.7211 54.8182 19.9256 54.7131C20.1301 54.6051 20.2907 54.4602 20.4071 54.2784C20.5236 54.0966 20.5819 53.8906 20.5819 53.6605V52.9659C20.525 53.0028 20.4469 53.0369 20.3475 53.0682C20.2509 53.0966 20.1415 53.1236 20.0194 53.1491C19.8972 53.1719 19.775 53.1932 19.6529 53.2131C19.5307 53.2301 19.4199 53.2457 19.3205 53.2599C19.1074 53.2912 18.9213 53.3409 18.7623 53.4091C18.6032 53.4773 18.4796 53.5696 18.3915 53.6861C18.3034 53.7997 18.2594 53.9418 18.2594 54.1122C18.2594 54.3594 18.3489 54.5483 18.5279 54.679C18.7097 54.8068 18.9398 54.8707 19.2182 54.8707ZM27.2743 49.4545V50.8182H23.3326V49.4545H27.2743ZM24.2275 47.8864H26.0428V53.9886C26.0428 54.1562 26.0684 54.2869 26.1195 54.3807C26.1706 54.4716 26.2417 54.5355 26.3326 54.5724C26.4263 54.6094 26.5343 54.6278 26.6564 54.6278C26.7417 54.6278 26.8269 54.6207 26.9121 54.6065C26.9973 54.5895 27.0627 54.5767 27.1081 54.5682L27.3936 55.919C27.3027 55.9474 27.1749 55.9801 27.0101 56.017C26.8453 56.0568 26.6451 56.081 26.4093 56.0895C25.9718 56.1065 25.5882 56.0483 25.2587 55.9148C24.932 55.7812 24.6777 55.5739 24.4959 55.2926C24.3141 55.0114 24.2246 54.6562 24.2275 54.2273V47.8864ZM30.3233 56.1236C29.9057 56.1236 29.5336 56.0511 29.2069 55.9062C28.8801 55.7585 28.6216 55.5412 28.4313 55.2543C28.2438 54.9645 28.15 54.6037 28.15 54.1719C28.15 53.8082 28.2168 53.5028 28.3503 53.2557C28.4838 53.0085 28.6657 52.8097 28.8958 52.6591C29.1259 52.5085 29.3873 52.3949 29.6799 52.3182C29.9753 52.2415 30.285 52.1875 30.6088 52.1562C30.9895 52.1165 31.2963 52.0795 31.5293 52.0455C31.7623 52.0085 31.9313 51.9545 32.0364 51.8835C32.1415 51.8125 32.1941 51.7074 32.1941 51.5682V51.5426C32.1941 51.2727 32.1088 51.0639 31.9384 50.9162C31.7708 50.7685 31.5321 50.6946 31.2225 50.6946C30.8958 50.6946 30.6358 50.767 30.4426 50.9119C30.2495 51.054 30.1216 51.233 30.0591 51.4489L28.3801 51.3125C28.4654 50.9148 28.633 50.571 28.883 50.2812C29.133 49.9886 29.4554 49.7642 29.8503 49.608C30.248 49.4489 30.7083 49.3693 31.231 49.3693C31.5946 49.3693 31.9426 49.4119 32.275 49.4972C32.6103 49.5824 32.9071 49.7145 33.1657 49.8935C33.427 50.0724 33.633 50.3026 33.7836 50.5838C33.9341 50.8622 34.0094 51.196 34.0094 51.5852V56H32.2878V55.0923H32.2367C32.1316 55.2969 31.9909 55.4773 31.8148 55.6335C31.6387 55.7869 31.427 55.9077 31.1799 55.9957C30.9327 56.081 30.6472 56.1236 30.3233 56.1236ZM30.8432 54.8707C31.1103 54.8707 31.3461 54.8182 31.5506 54.7131C31.7551 54.6051 31.9157 54.4602 32.0321 54.2784C32.1486 54.0966 32.2069 53.8906 32.2069 53.6605V52.9659C32.15 53.0028 32.0719 53.0369 31.9725 53.0682C31.8759 53.0966 31.7665 53.1236 31.6444 53.1491C31.5222 53.1719 31.4 53.1932 31.2779 53.2131C31.1557 53.2301 31.0449 53.2457 30.9455 53.2599C30.7324 53.2912 30.5463 53.3409 30.3873 53.4091C30.2282 53.4773 30.1046 53.5696 30.0165 53.6861C29.9284 53.7997 29.8844 53.9418 29.8844 54.1122C29.8844 54.3594 29.9739 54.5483 30.1529 54.679C30.3347 54.8068 30.5648 54.8707 30.8432 54.8707ZM37.2331 47.2727V56H35.4178V47.2727H37.2331ZM41.6447 56.1278C40.9828 56.1278 40.4103 55.9872 39.9274 55.706C39.4473 55.4219 39.0765 55.027 38.8152 54.5213C38.5538 54.0128 38.4231 53.4233 38.4231 52.7528C38.4231 52.0767 38.5538 51.4858 38.8152 50.9801C39.0765 50.4716 39.4473 50.0767 39.9274 49.7955C40.4103 49.5114 40.9828 49.3693 41.6447 49.3693C42.3066 49.3693 42.8777 49.5114 43.3578 49.7955C43.8407 50.0767 44.2129 50.4716 44.4743 50.9801C44.7356 51.4858 44.8663 52.0767 44.8663 52.7528C44.8663 53.4233 44.7356 54.0128 44.4743 54.5213C44.2129 55.027 43.8407 55.4219 43.3578 55.706C42.8777 55.9872 42.3066 56.1278 41.6447 56.1278ZM41.6532 54.7216C41.9544 54.7216 42.2058 54.6364 42.4075 54.4659C42.6092 54.2926 42.7612 54.0568 42.8635 53.7585C42.9686 53.4602 43.0211 53.1207 43.0211 52.7401C43.0211 52.3594 42.9686 52.0199 42.8635 51.7216C42.7612 51.4233 42.6092 51.1875 42.4075 51.0142C42.2058 50.8409 41.9544 50.7543 41.6532 50.7543C41.3493 50.7543 41.0936 50.8409 40.8862 51.0142C40.6816 51.1875 40.5268 51.4233 40.4217 51.7216C40.3194 52.0199 40.2683 52.3594 40.2683 52.7401C40.2683 53.1207 40.3194 53.4602 40.4217 53.7585C40.5268 54.0568 40.6816 54.2926 40.8862 54.4659C41.0936 54.6364 41.3493 54.7216 41.6532 54.7216ZM48.9956 58.5909C48.4075 58.5909 47.9032 58.5099 47.4828 58.348C47.0652 58.1889 46.7328 57.9716 46.4856 57.696C46.2385 57.4205 46.0779 57.1108 46.0041 56.767L47.6831 56.5412C47.7342 56.6719 47.8152 56.794 47.926 56.9077C48.0368 57.0213 48.1831 57.1122 48.3649 57.1804C48.5495 57.2514 48.774 57.2869 49.0382 57.2869C49.4331 57.2869 49.7583 57.1903 50.014 56.9972C50.2725 56.8068 50.4018 56.4872 50.4018 56.0384V54.8409H50.3251C50.2456 55.0227 50.1262 55.1946 49.9672 55.3565C49.8081 55.5185 49.6035 55.6506 49.3535 55.7528C49.1035 55.8551 48.8052 55.9062 48.4586 55.9062C47.9672 55.9062 47.5197 55.7926 47.1163 55.5653C46.7157 55.3352 46.3961 54.9844 46.1575 54.5128C45.9217 54.0384 45.8038 53.4389 45.8038 52.7145C45.8038 51.973 45.9245 51.3537 46.166 50.8565C46.4075 50.3594 46.7285 49.9872 47.1291 49.7401C47.5325 49.4929 47.9743 49.3693 48.4544 49.3693C48.8208 49.3693 49.1277 49.4318 49.3748 49.5568C49.622 49.679 49.8208 49.8324 49.9714 50.017C50.1248 50.1989 50.2427 50.3778 50.3251 50.554H50.3933V49.4545H52.1958V56.0639C52.1958 56.6207 52.0595 57.0866 51.7868 57.4616C51.514 57.8366 51.1362 58.1179 50.6532 58.3054C50.1731 58.4957 49.6206 58.5909 48.9956 58.5909ZM49.0339 54.5426C49.3265 54.5426 49.5737 54.4702 49.7754 54.3253C49.9799 54.1776 50.1362 53.9673 50.2441 53.6946C50.3549 53.419 50.4103 53.0895 50.4103 52.706C50.4103 52.3224 50.3564 51.9901 50.2484 51.7088C50.1404 51.4247 49.9842 51.2045 49.7797 51.0483C49.5751 50.892 49.3265 50.8139 49.0339 50.8139C48.7356 50.8139 48.4842 50.8949 48.2797 51.0568C48.0751 51.2159 47.9203 51.4375 47.8152 51.7216C47.71 52.0057 47.6575 52.3338 47.6575 52.706C47.6575 53.0838 47.71 53.4105 47.8152 53.6861C47.9231 53.9588 48.0779 54.1705 48.2797 54.321C48.4842 54.4687 48.7356 54.5426 49.0339 54.5426Z" fill="#FDFDFD"/>
</svg>
