<svg width="60" height="66" viewBox="0 0 60 66" fill="none" xmlns="http://www.w3.org/2000/svg">
<path d="M25.9998 13.1667H23.3332C21.8604 13.1667 20.6665 14.3606 20.6665 15.8333V31.8333C20.6665 33.3061 21.8604 34.5 23.3332 34.5H36.6665C38.1393 34.5 39.3332 33.3061 39.3332 31.8333V15.8333C39.3332 14.3606 38.1393 13.1667 36.6665 13.1667H33.9998M25.9998 13.1667C25.9998 14.6394 27.1937 15.8333 28.6665 15.8333H31.3332C32.8059 15.8333 33.9998 14.6394 33.9998 13.1667M25.9998 13.1667C25.9998 11.6939 27.1937 10.5 28.6665 10.5H31.3332C32.8059 10.5 33.9998 11.6939 33.9998 13.1667M29.9998 22.5H33.9998M29.9998 27.8333H33.9998M25.9998 22.5H26.0132M25.9998 27.8333H26.0132" stroke="#070707" stroke-width="2" stroke-linecap="round"/>
<path d="M16.1127 50.5H15.0559C14.9934 50.196 14.8841 49.929 14.7278 49.6989C14.5744 49.4688 14.3869 49.2756 14.1653 49.1193C13.9466 48.9602 13.7037 48.8409 13.4366 48.7614C13.1696 48.6818 12.8912 48.642 12.6014 48.642C12.073 48.642 11.5943 48.7756 11.1653 49.0426C10.7392 49.3097 10.3997 49.7031 10.1468 50.223C9.89684 50.7429 9.77184 51.3807 9.77184 52.1364C9.77184 52.892 9.89684 53.5298 10.1468 54.0497C10.3997 54.5696 10.7392 54.9631 11.1653 55.2301C11.5943 55.4972 12.073 55.6307 12.6014 55.6307C12.8912 55.6307 13.1696 55.5909 13.4366 55.5114C13.7037 55.4318 13.9466 55.3139 14.1653 55.1577C14.3869 54.9986 14.5744 54.804 14.7278 54.5739C14.8841 54.3409 14.9934 54.0739 15.0559 53.7727H16.1127C16.0332 54.2187 15.8883 54.6179 15.6781 54.9702C15.4679 55.3224 15.2065 55.6222 14.894 55.8693C14.5815 56.1136 14.2306 56.2997 13.8414 56.4276C13.4551 56.5554 13.0417 56.6193 12.6014 56.6193C11.8571 56.6193 11.1951 56.4375 10.6156 56.0739C10.036 55.7102 9.58008 55.1932 9.24769 54.5227C8.91531 53.8523 8.74911 53.0568 8.74911 52.1364C8.74911 51.2159 8.91531 50.4205 9.24769 49.75C9.58008 49.0795 10.036 48.5625 10.6156 48.1989C11.1951 47.8352 11.8571 47.6534 12.6014 47.6534C13.0417 47.6534 13.4551 47.7173 13.8414 47.8452C14.2306 47.973 14.5815 48.1605 14.894 48.4077C15.2065 48.652 15.4679 48.9503 15.6781 49.3026C15.8883 49.652 16.0332 50.0511 16.1127 50.5ZM19.6103 56.6534C19.1955 56.6534 18.8191 56.5753 18.481 56.419C18.1429 56.2599 17.8745 56.0312 17.6756 55.733C17.4767 55.4318 17.3773 55.0682 17.3773 54.642C17.3773 54.267 17.4512 53.9631 17.5989 53.7301C17.7466 53.4943 17.9441 53.3097 18.1912 53.1761C18.4384 53.0426 18.7111 52.9432 19.0094 52.8778C19.3105 52.8097 19.6131 52.7557 19.9171 52.7159C20.3148 52.6648 20.6373 52.6264 20.8844 52.6009C21.1344 52.5724 21.3162 52.5256 21.4299 52.4602C21.5463 52.3949 21.6046 52.2812 21.6046 52.1193V52.0852C21.6046 51.6648 21.4895 51.3381 21.2594 51.1051C21.0321 50.8722 20.687 50.7557 20.2239 50.7557C19.7438 50.7557 19.3674 50.8608 19.0946 51.071C18.8219 51.2812 18.6301 51.5057 18.5194 51.7443L17.5648 51.4034C17.7353 51.0057 17.9625 50.696 18.2466 50.4744C18.5336 50.25 18.8461 50.0937 19.1841 50.0057C19.525 49.9148 19.8603 49.8693 20.1898 49.8693C20.4 49.8693 20.6415 49.8949 20.9142 49.946C21.1898 49.9943 21.4554 50.0952 21.7111 50.2486C21.9696 50.402 22.1841 50.6335 22.3546 50.9432C22.525 51.2528 22.6103 51.6676 22.6103 52.1875V56.5H21.6046V55.6136H21.5534C21.4853 55.7557 21.3716 55.9077 21.2125 56.0696C21.0534 56.2315 20.8418 56.3693 20.5776 56.483C20.3134 56.5966 19.9909 56.6534 19.6103 56.6534ZM19.7637 55.75C20.1614 55.75 20.4966 55.6719 20.7694 55.5156C21.0449 55.3594 21.2523 55.1577 21.3915 54.9105C21.5336 54.6634 21.6046 54.4034 21.6046 54.1307V53.2102C21.562 53.2614 21.4682 53.3082 21.3233 53.3509C21.1813 53.3906 21.0165 53.4261 20.829 53.4574C20.6444 53.4858 20.464 53.5114 20.2878 53.5341C20.1145 53.554 19.9739 53.571 19.8659 53.5852C19.6046 53.6193 19.3603 53.6747 19.133 53.7514C18.9086 53.8253 18.7267 53.9375 18.5875 54.0881C18.4512 54.2358 18.383 54.4375 18.383 54.6932C18.383 55.0426 18.5123 55.3068 18.7708 55.4858C19.0321 55.6619 19.3631 55.75 19.7637 55.75ZM27.2924 49.9545V50.8068H23.9004V49.9545H27.2924ZM24.889 48.3864H25.8947V54.625C25.8947 54.9091 25.9359 55.1222 26.0183 55.2642C26.1035 55.4034 26.2115 55.4972 26.3422 55.5455C26.4757 55.5909 26.6163 55.6136 26.764 55.6136C26.8748 55.6136 26.9657 55.608 27.0368 55.5966C27.1078 55.5824 27.1646 55.571 27.2072 55.5625L27.4118 56.4659C27.3436 56.4915 27.2484 56.517 27.1262 56.5426C27.0041 56.571 26.8493 56.5852 26.6618 56.5852C26.3777 56.5852 26.0993 56.5241 25.8265 56.402C25.5566 56.2798 25.3322 56.0938 25.1532 55.8438C24.9771 55.5938 24.889 55.2784 24.889 54.8977V48.3864ZM30.7314 56.6534C30.3166 56.6534 29.9402 56.5753 29.6021 56.419C29.264 56.2599 28.9956 56.0312 28.7967 55.733C28.5978 55.4318 28.4984 55.0682 28.4984 54.642C28.4984 54.267 28.5723 53.9631 28.72 53.7301C28.8677 53.4943 29.0652 53.3097 29.3123 53.1761C29.5595 53.0426 29.8322 52.9432 30.1305 52.8778C30.4316 52.8097 30.7342 52.7557 31.0382 52.7159C31.4359 52.6648 31.7583 52.6264 32.0055 52.6009C32.2555 52.5724 32.4373 52.5256 32.551 52.4602C32.6674 52.3949 32.7257 52.2812 32.7257 52.1193V52.0852C32.7257 51.6648 32.6106 51.3381 32.3805 51.1051C32.1532 50.8722 31.8081 50.7557 31.345 50.7557C30.8649 50.7557 30.4885 50.8608 30.2157 51.071C29.943 51.2812 29.7512 51.5057 29.6404 51.7443L28.6859 51.4034C28.8564 51.0057 29.0836 50.696 29.3677 50.4744C29.6547 50.25 29.9672 50.0937 30.3052 50.0057C30.6461 49.9148 30.9814 49.8693 31.3109 49.8693C31.5211 49.8693 31.7626 49.8949 32.0353 49.946C32.3109 49.9943 32.5765 50.0952 32.8322 50.2486C33.0907 50.402 33.3052 50.6335 33.4757 50.9432C33.6461 51.2528 33.7314 51.6676 33.7314 52.1875V56.5H32.7257V55.6136H32.6745C32.6064 55.7557 32.4927 55.9077 32.3336 56.0696C32.1745 56.2315 31.9629 56.3693 31.6987 56.483C31.4345 56.5966 31.112 56.6534 30.7314 56.6534ZM30.8848 55.75C31.2825 55.75 31.6177 55.6719 31.8904 55.5156C32.166 55.3594 32.3734 55.1577 32.5126 54.9105C32.6547 54.6634 32.7257 54.4034 32.7257 54.1307V53.2102C32.6831 53.2614 32.5893 53.3082 32.4444 53.3509C32.3024 53.3906 32.1376 53.4261 31.9501 53.4574C31.7654 53.4858 31.585 53.5114 31.4089 53.5341C31.2356 53.554 31.095 53.571 30.987 53.5852C30.7257 53.6193 30.4814 53.6747 30.2541 53.7514C30.0297 53.8253 29.8478 53.9375 29.7086 54.0881C29.5723 54.2358 29.5041 54.4375 29.5041 54.6932C29.5041 55.0426 29.6333 55.3068 29.8919 55.4858C30.1532 55.6619 30.4842 55.75 30.8848 55.75ZM36.5726 47.7727V56.5H35.5669V47.7727H36.5726ZM41.0737 56.6364C40.4828 56.6364 39.9643 56.4957 39.5183 56.2145C39.0751 55.9332 38.7285 55.5398 38.4785 55.0341C38.2314 54.5284 38.1078 53.9375 38.1078 53.2614C38.1078 52.5795 38.2314 51.9844 38.4785 51.4759C38.7285 50.9673 39.0751 50.5724 39.5183 50.2912C39.9643 50.0099 40.4828 49.8693 41.0737 49.8693C41.6646 49.8693 42.1816 50.0099 42.6248 50.2912C43.0708 50.5724 43.4174 50.9673 43.6646 51.4759C43.9146 51.9844 44.0396 52.5795 44.0396 53.2614C44.0396 53.9375 43.9146 54.5284 43.6646 55.0341C43.4174 55.5398 43.0708 55.9332 42.6248 56.2145C42.1816 56.4957 41.6646 56.6364 41.0737 56.6364ZM41.0737 55.733C41.5225 55.733 41.8919 55.6179 42.1816 55.3878C42.4714 55.1577 42.6859 54.8551 42.8251 54.4801C42.9643 54.1051 43.0339 53.6989 43.0339 53.2614C43.0339 52.8239 42.9643 52.4162 42.8251 52.0384C42.6859 51.6605 42.4714 51.3551 42.1816 51.1222C41.8919 50.8892 41.5225 50.7727 41.0737 50.7727C40.6248 50.7727 40.2555 50.8892 39.9657 51.1222C39.676 51.3551 39.4615 51.6605 39.3223 52.0384C39.1831 52.4162 39.1135 52.8239 39.1135 53.2614C39.1135 53.6989 39.1831 54.1051 39.3223 54.4801C39.4615 54.8551 39.676 55.1577 39.9657 55.3878C40.2555 55.6179 40.6248 55.733 41.0737 55.733ZM48.2168 59.0909C47.731 59.0909 47.3134 59.0284 46.964 58.9034C46.6145 58.7812 46.3233 58.6193 46.0904 58.4176C45.8603 58.2188 45.677 58.0057 45.5407 57.7784L46.3418 57.2159C46.4327 57.3352 46.5478 57.4716 46.687 57.625C46.8262 57.7812 47.0165 57.9162 47.258 58.0298C47.5023 58.1463 47.8219 58.2045 48.2168 58.2045C48.7452 58.2045 49.1813 58.0767 49.525 57.821C49.8688 57.5653 50.0407 57.1648 50.0407 56.6193V55.2898H49.9554C49.8816 55.4091 49.7765 55.5568 49.6401 55.733C49.5066 55.9062 49.3134 56.0611 49.0605 56.1974C48.8105 56.331 48.4725 56.3977 48.0463 56.3977C47.5179 56.3977 47.0435 56.2727 46.623 56.0227C46.2054 55.7727 45.8745 55.4091 45.6301 54.9318C45.3887 54.4545 45.2679 53.875 45.2679 53.1932C45.2679 52.5227 45.3858 51.9389 45.6216 51.4418C45.8574 50.9418 46.1855 50.5554 46.606 50.2827C47.0265 50.0071 47.5123 49.8693 48.0634 49.8693C48.4895 49.8693 48.8276 49.9403 49.0776 50.0824C49.3304 50.2216 49.5236 50.3807 49.6571 50.5597C49.7935 50.7358 49.8986 50.8807 49.9725 50.9943H50.0748V49.9545H51.0463V56.6875C51.0463 57.25 50.9185 57.7074 50.6628 58.0597C50.41 58.4148 50.0691 58.6747 49.6401 58.8395C49.214 59.0071 48.7395 59.0909 48.2168 59.0909ZM48.1827 55.4943C48.5861 55.4943 48.927 55.402 49.2054 55.2173C49.4838 55.0327 49.6955 54.767 49.8404 54.4205C49.9853 54.0739 50.0577 53.6591 50.0577 53.1761C50.0577 52.7045 49.9867 52.2884 49.8446 51.9276C49.7026 51.5668 49.4924 51.2841 49.214 51.0795C48.9355 50.875 48.5918 50.7727 48.1827 50.7727C47.7566 50.7727 47.4015 50.8807 47.1174 51.0966C46.8361 51.3125 46.6245 51.6023 46.4824 51.9659C46.3432 52.3295 46.2736 52.733 46.2736 53.1761C46.2736 53.6307 46.3446 54.0327 46.4867 54.3821C46.6316 54.7287 46.8446 55.0014 47.1259 55.2003C47.41 55.3963 47.7623 55.4943 48.1827 55.4943Z" fill="#252525"/>
</svg>
