<svg width="60" height="65" viewBox="0 0 60 65" fill="none" xmlns="http://www.w3.org/2000/svg">
<rect width="60" height="65" rx="12" fill="#0B3C7F"/>
<path d="M31.1316 9.66858C30.5067 9.04374 29.4937 9.04374 28.8688 9.66858L17.6688 20.8686C17.044 21.4934 17.044 22.5065 17.6688 23.1313C18.2937 23.7562 19.3067 23.7562 19.9316 23.1313L20.4002 22.6627V33.1999C20.4002 34.0836 21.1165 34.7999 22.0002 34.7999H25.2002C26.0839 34.7999 26.8002 34.0836 26.8002 33.1999V29.9999C26.8002 29.1163 27.5165 28.4 28.4002 28.4H31.6002C32.4839 28.4 33.2002 29.1163 33.2002 29.9999V33.1999C33.2002 34.0836 33.9165 34.7999 34.8002 34.7999H38.0002C38.8839 34.7999 39.6002 34.0836 39.6002 33.1999V22.6627L40.0688 23.1313C40.6937 23.7562 41.7067 23.7562 42.3316 23.1313C42.9564 22.5065 42.9564 21.4934 42.3316 20.8686L31.1316 9.66858Z" fill="#FDFDFD"/>
<path d="M13.5437 56V47.2727H15.3888V50.8736H19.1346V47.2727H20.9755V56H19.1346V52.3949H15.3888V56H13.5437ZM25.4201 56.1278C24.7582 56.1278 24.1857 55.9872 23.7028 55.706C23.2227 55.4219 22.8519 55.027 22.5906 54.5213C22.3292 54.0128 22.1985 53.4233 22.1985 52.7528C22.1985 52.0767 22.3292 51.4858 22.5906 50.9801C22.8519 50.4716 23.2227 50.0767 23.7028 49.7955C24.1857 49.5114 24.7582 49.3693 25.4201 49.3693C26.082 49.3693 26.6531 49.5114 27.1332 49.7955C27.6161 50.0767 27.9883 50.4716 28.2496 50.9801C28.511 51.4858 28.6417 52.0767 28.6417 52.7528C28.6417 53.4233 28.511 54.0128 28.2496 54.5213C27.9883 55.027 27.6161 55.4219 27.1332 55.706C26.6531 55.9872 26.082 56.1278 25.4201 56.1278ZM25.4286 54.7216C25.7298 54.7216 25.9812 54.6364 26.1829 54.4659C26.3846 54.2926 26.5366 54.0568 26.6388 53.7585C26.744 53.4602 26.7965 53.1207 26.7965 52.7401C26.7965 52.3594 26.744 52.0199 26.6388 51.7216C26.5366 51.4233 26.3846 51.1875 26.1829 51.0142C25.9812 50.8409 25.7298 50.7543 25.4286 50.7543C25.1246 50.7543 24.869 50.8409 24.6616 51.0142C24.457 51.1875 24.3022 51.4233 24.1971 51.7216C24.0948 52.0199 24.0437 52.3594 24.0437 52.7401C24.0437 53.1207 24.0948 53.4602 24.1971 53.7585C24.3022 54.0568 24.457 54.2926 24.6616 54.4659C24.869 54.6364 25.1246 54.7216 25.4286 54.7216ZM29.8221 56V49.4545H31.5522V50.6094H31.6289C31.7653 50.2259 31.9925 49.9233 32.3107 49.7017C32.6289 49.4801 33.0096 49.3693 33.4528 49.3693C33.9016 49.3693 34.2837 49.4815 34.5991 49.706C34.9144 49.9276 35.1246 50.2287 35.2298 50.6094H35.2979C35.4315 50.2344 35.6729 49.9347 36.0224 49.7102C36.3746 49.483 36.7908 49.3693 37.271 49.3693C37.8817 49.3693 38.3775 49.5639 38.7582 49.9531C39.1417 50.3395 39.3335 50.8878 39.3335 51.598V56H37.5224V51.956C37.5224 51.5923 37.4258 51.3196 37.2326 51.1378C37.0394 50.956 36.7979 50.8651 36.5082 50.8651C36.1786 50.8651 35.9215 50.9702 35.7369 51.1804C35.5522 51.3878 35.4599 51.6619 35.4599 52.0028V56H33.6999V51.9176C33.6999 51.5966 33.6076 51.3409 33.4229 51.1506C33.2411 50.9602 33.0011 50.8651 32.7028 50.8651C32.5011 50.8651 32.3192 50.9162 32.1573 51.0185C31.9982 51.1179 31.8718 51.2585 31.7781 51.4403C31.6843 51.6193 31.6374 51.8295 31.6374 52.071V56H29.8221ZM43.7504 56.1278C43.0771 56.1278 42.4975 55.9915 42.0117 55.7188C41.5288 55.4432 41.1566 55.054 40.8952 54.5511C40.6339 54.0455 40.5032 53.4474 40.5032 52.7571C40.5032 52.0838 40.6339 51.4929 40.8952 50.9844C41.1566 50.4759 41.5245 50.0795 41.9989 49.7955C42.4762 49.5114 43.0359 49.3693 43.6779 49.3693C44.1097 49.3693 44.5117 49.4389 44.8839 49.5781C45.2589 49.7145 45.5856 49.9205 45.864 50.196C46.1452 50.4716 46.364 50.8182 46.5202 51.2358C46.6765 51.6506 46.7546 52.1364 46.7546 52.6932V53.1918H41.2276V52.0668H45.0458C45.0458 51.8054 44.989 51.5739 44.8754 51.3722C44.7617 51.1705 44.604 51.0128 44.4023 50.8991C44.2035 50.7827 43.9719 50.7244 43.7077 50.7244C43.4322 50.7244 43.1879 50.7884 42.9748 50.9162C42.7646 51.0412 42.5998 51.2102 42.4805 51.4233C42.3612 51.6335 42.3001 51.8679 42.2972 52.1264V53.196C42.2972 53.5199 42.3569 53.7997 42.4762 54.0355C42.5984 54.2713 42.7702 54.4531 42.9918 54.581C43.2134 54.7088 43.4762 54.7727 43.7802 54.7727C43.9819 54.7727 44.1665 54.7443 44.3342 54.6875C44.5018 54.6307 44.6452 54.5455 44.7646 54.4318C44.8839 54.3182 44.9748 54.179 45.0373 54.0142L46.7163 54.125C46.631 54.5284 46.4563 54.8807 46.1921 55.1818C45.9308 55.4801 45.5927 55.7131 45.1779 55.8807C44.766 56.0455 44.2901 56.1278 43.7504 56.1278Z" fill="#FDFDFD"/>
</svg>
