<svg width="60" height="66" viewBox="0 0 60 66" fill="none" xmlns="http://www.w3.org/2000/svg">
<path d="M18 22.5L20.6667 19.8333M20.6667 19.8333L30 10.5L39.3333 19.8333M20.6667 19.8333V33.1667C20.6667 33.903 21.2636 34.5 22 34.5H26M39.3333 19.8333L42 22.5M39.3333 19.8333V33.1667C39.3333 33.903 38.7364 34.5 38 34.5H34M26 34.5C26.7364 34.5 27.3333 33.903 27.3333 33.1667V27.8333C27.3333 27.097 27.9303 26.5 28.6667 26.5H31.3333C32.0697 26.5 32.6667 27.097 32.6667 27.8333V33.1667C32.6667 33.903 33.2636 34.5 34 34.5M26 34.5H34" stroke="#070707" stroke-width="2" stroke-linecap="round" stroke-linejoin="round"/>
<path d="M14.3283 56.5V47.7727H15.3851V51.6591H20.0385V47.7727H21.0953V56.5H20.0385V52.5966H15.3851V56.5H14.3283ZM25.7338 56.6364C25.1429 56.6364 24.6245 56.4957 24.1784 56.2145C23.7353 55.9332 23.3887 55.5398 23.1387 55.0341C22.8915 54.5284 22.7679 53.9375 22.7679 53.2614C22.7679 52.5795 22.8915 51.9844 23.1387 51.4759C23.3887 50.9673 23.7353 50.5724 24.1784 50.2912C24.6245 50.0099 25.1429 49.8693 25.7338 49.8693C26.3248 49.8693 26.8418 50.0099 27.285 50.2912C27.731 50.5724 28.0776 50.9673 28.3248 51.4759C28.5748 51.9844 28.6998 52.5795 28.6998 53.2614C28.6998 53.9375 28.5748 54.5284 28.3248 55.0341C28.0776 55.5398 27.731 55.9332 27.285 56.2145C26.8418 56.4957 26.3248 56.6364 25.7338 56.6364ZM25.7338 55.733C26.1827 55.733 26.552 55.6179 26.8418 55.3878C27.1316 55.1577 27.3461 54.8551 27.4853 54.4801C27.6245 54.1051 27.6941 53.6989 27.6941 53.2614C27.6941 52.8239 27.6245 52.4162 27.4853 52.0384C27.3461 51.6605 27.1316 51.3551 26.8418 51.1222C26.552 50.8892 26.1827 50.7727 25.7338 50.7727C25.285 50.7727 24.9157 50.8892 24.6259 51.1222C24.3361 51.3551 24.1216 51.6605 23.9824 52.0384C23.8432 52.4162 23.7736 52.8239 23.7736 53.2614C23.7736 53.6989 23.8432 54.1051 23.9824 54.4801C24.1216 54.8551 24.3361 55.1577 24.6259 55.3878C24.9157 55.6179 25.285 55.733 25.7338 55.733ZM30.2349 56.5V49.9545H31.2065V50.9773H31.2917C31.4281 50.6278 31.6483 50.3565 31.9522 50.1634C32.2562 49.9673 32.6213 49.8693 33.0474 49.8693C33.4792 49.8693 33.8386 49.9673 34.1255 50.1634C34.4153 50.3565 34.6412 50.6278 34.8031 50.9773H34.8713C35.0389 50.6392 35.2903 50.3707 35.6255 50.1719C35.9608 49.9702 36.3627 49.8693 36.8315 49.8693C37.4167 49.8693 37.8954 50.0526 38.2676 50.419C38.6397 50.7827 38.8258 51.3494 38.8258 52.1193V56.5H37.8201V52.1193C37.8201 51.6364 37.688 51.2912 37.4238 51.0838C37.1596 50.8764 36.8485 50.7727 36.4906 50.7727C36.0304 50.7727 35.6738 50.9119 35.421 51.1903C35.1681 51.4659 35.0417 51.8153 35.0417 52.2386V56.5H34.019V52.017C34.019 51.6449 33.8983 51.3452 33.6568 51.1179C33.4153 50.8878 33.1042 50.7727 32.7235 50.7727C32.4622 50.7727 32.2179 50.8423 31.9906 50.9815C31.7662 51.1207 31.5843 51.3139 31.4451 51.5611C31.3088 51.8054 31.2406 52.0881 31.2406 52.4091V56.5H30.2349ZM43.4089 56.6364C42.7782 56.6364 42.2342 56.4972 41.7768 56.2188C41.3223 55.9375 40.9714 55.5455 40.7243 55.0426C40.4799 54.5369 40.3578 53.9489 40.3578 53.2784C40.3578 52.608 40.4799 52.017 40.7243 51.5057C40.9714 50.9915 41.3152 50.5909 41.7555 50.304C42.1987 50.0142 42.7157 49.8693 43.3066 49.8693C43.6475 49.8693 43.9842 49.9261 44.3166 50.0398C44.649 50.1534 44.9515 50.3381 45.2243 50.5938C45.497 50.8466 45.7143 51.1818 45.8762 51.5994C46.0382 52.017 46.1191 52.5312 46.1191 53.142V53.5682H41.0737V52.6989H45.0964C45.0964 52.3295 45.0225 52 44.8748 51.7102C44.7299 51.4205 44.5225 51.1918 44.2527 51.0241C43.9856 50.8565 43.6703 50.7727 43.3066 50.7727C42.9061 50.7727 42.5595 50.8722 42.2669 51.071C41.9771 51.267 41.7541 51.5227 41.5978 51.8381C41.4416 52.1534 41.3635 52.4915 41.3635 52.8523V53.4318C41.3635 53.9261 41.4487 54.3452 41.6191 54.6889C41.7924 55.0298 42.0325 55.2898 42.3393 55.4688C42.6461 55.6449 43.0027 55.733 43.4089 55.733C43.6731 55.733 43.9118 55.696 44.1248 55.6222C44.3407 55.5455 44.5268 55.4318 44.6831 55.2812C44.8393 55.1278 44.96 54.9375 45.0453 54.7102L46.0169 54.983C45.9146 55.3125 45.7427 55.6023 45.5012 55.8523C45.2598 56.0994 44.9615 56.2926 44.6064 56.4318C44.2512 56.5682 43.8521 56.6364 43.4089 56.6364Z" fill="#252525"/>
</svg>
