<svg width="60" height="66" viewBox="0 0 60 66" fill="none" xmlns="http://www.w3.org/2000/svg">
<path d="M26 22.5L28.6667 25.1667L34 19.8333M24.4463 12.7627C25.403 12.6864 26.3113 12.3102 27.0418 11.6877C28.7464 10.235 31.2536 10.235 32.9582 11.6877C33.6887 12.3102 34.597 12.6864 35.5537 12.7627C37.7863 12.9409 39.5591 14.7137 39.7373 16.9463C39.8136 17.903 40.1898 18.8113 40.8123 19.5418C42.265 21.2464 42.265 23.7536 40.8123 25.4582C40.1898 26.1887 39.8136 27.097 39.7373 28.0537C39.5591 30.2863 37.7863 32.0591 35.5537 32.2373C34.597 32.3136 33.6887 32.6898 32.9582 33.3123C31.2536 34.765 28.7464 34.765 27.0418 33.3123C26.3113 32.6898 25.403 32.3136 24.4463 32.2373C22.2137 32.0591 20.4409 30.2863 20.2627 28.0537C20.1864 27.097 19.8102 26.1887 19.1877 25.4582C17.735 23.7536 17.735 21.2464 19.1877 19.5418C19.8102 18.8113 20.1864 17.903 20.2627 16.9463C20.4409 14.7137 22.2137 12.9409 24.4463 12.7627Z" stroke="#7C7C7C" stroke-width="2" stroke-linecap="round" stroke-linejoin="round"/>
<path d="M7.56072 47.7727H8.82209L11.788 55.017H11.8903L14.8562 47.7727H16.1175V56.5H15.1289V49.8693H15.0437L12.3164 56.5H11.3619L8.63459 49.8693H8.54936V56.5H7.56072V47.7727ZM20.8445 56.6364C20.2138 56.6364 19.6697 56.4972 19.2124 56.2188C18.7578 55.9375 18.407 55.5455 18.1598 55.0426C17.9155 54.5369 17.7933 53.9489 17.7933 53.2784C17.7933 52.608 17.9155 52.017 18.1598 51.5057C18.407 50.9915 18.7507 50.5909 19.1911 50.304C19.6342 50.0142 20.1513 49.8693 20.7422 49.8693C21.0831 49.8693 21.4197 49.9261 21.7521 50.0398C22.0845 50.1534 22.3871 50.3381 22.6598 50.5938C22.9325 50.8466 23.1499 51.1818 23.3118 51.5994C23.4737 52.017 23.5547 52.5312 23.5547 53.142V53.5682H18.5092V52.6989H22.532C22.532 52.3295 22.4581 52 22.3104 51.7102C22.1655 51.4205 21.9581 51.1918 21.6882 51.0241C21.4212 50.8565 21.1058 50.7727 20.7422 50.7727C20.3416 50.7727 19.995 50.8722 19.7024 51.071C19.4126 51.267 19.1896 51.5227 19.0334 51.8381C18.8771 52.1534 18.799 52.4915 18.799 52.8523V53.4318C18.799 53.9261 18.8842 54.3452 19.0547 54.6889C19.228 55.0298 19.468 55.2898 19.7749 55.4688C20.0817 55.6449 20.4382 55.733 20.8445 55.733C21.1087 55.733 21.3473 55.696 21.5604 55.6222C21.7763 55.5455 21.9624 55.4318 22.1186 55.2812C22.2749 55.1278 22.3956 54.9375 22.4808 54.7102L23.4524 54.983C23.3501 55.3125 23.1783 55.6023 22.9368 55.8523C22.6953 56.0994 22.397 56.2926 22.0419 56.4318C21.6868 56.5682 21.2876 56.6364 20.8445 56.6364ZM25.0845 56.5V49.9545H26.0561V50.9773H26.1413C26.2777 50.6278 26.4979 50.3565 26.8018 50.1634C27.1058 49.9673 27.4709 49.8693 27.897 49.8693C28.3288 49.8693 28.6882 49.9673 28.9751 50.1634C29.2649 50.3565 29.4908 50.6278 29.6527 50.9773H29.7209C29.8885 50.6392 30.1399 50.3707 30.4751 50.1719C30.8104 49.9702 31.2124 49.8693 31.6811 49.8693C32.2663 49.8693 32.745 50.0526 33.1172 50.419C33.4893 50.7827 33.6754 51.3494 33.6754 52.1193V56.5H32.6697V52.1193C32.6697 51.6364 32.5376 51.2912 32.2734 51.0838C32.0092 50.8764 31.6982 50.7727 31.3402 50.7727C30.88 50.7727 30.5234 50.9119 30.2706 51.1903C30.0178 51.4659 29.8913 51.8153 29.8913 52.2386V56.5H28.8686V52.017C28.8686 51.6449 28.7479 51.3452 28.5064 51.1179C28.2649 50.8878 27.9538 50.7727 27.5732 50.7727C27.3118 50.7727 27.0675 50.8423 26.8402 50.9815C26.6158 51.1207 26.4339 51.3139 26.2947 51.5611C26.1584 51.8054 26.0902 52.0881 26.0902 52.4091V56.5H25.0845ZM35.6506 56.5V47.7727H36.6562V50.9943H36.7415C36.8153 50.8807 36.9176 50.7358 37.0483 50.5597C37.1818 50.3807 37.3722 50.2216 37.6193 50.0824C37.8693 49.9403 38.2074 49.8693 38.6335 49.8693C39.1847 49.8693 39.6705 50.0071 40.0909 50.2827C40.5114 50.5582 40.8395 50.9489 41.0753 51.4545C41.3111 51.9602 41.429 52.5568 41.429 53.2443C41.429 53.9375 41.3111 54.5384 41.0753 55.0469C40.8395 55.5526 40.5128 55.9446 40.0952 56.223C39.6776 56.4986 39.196 56.6364 38.6506 56.6364C38.2301 56.6364 37.8935 56.5668 37.6406 56.4276C37.3878 56.2855 37.1932 56.125 37.0568 55.946C36.9205 55.7642 36.8153 55.6136 36.7415 55.4943H36.6222V56.5H35.6506ZM36.6392 53.2273C36.6392 53.7216 36.7116 54.1577 36.8565 54.5355C37.0014 54.9105 37.2131 55.2045 37.4915 55.4176C37.7699 55.6278 38.1108 55.733 38.5142 55.733C38.9347 55.733 39.2855 55.6222 39.5668 55.4006C39.8509 55.1761 40.0639 54.875 40.206 54.4972C40.3509 54.1165 40.4233 53.6932 40.4233 53.2273C40.4233 52.767 40.3523 52.3523 40.2102 51.983C40.071 51.6108 39.8594 51.3168 39.5753 51.1009C39.294 50.8821 38.9403 50.7727 38.5142 50.7727C38.1051 50.7727 37.7614 50.8764 37.483 51.0838C37.2045 51.2884 36.9943 51.5753 36.8523 51.9446C36.7102 52.3111 36.6392 52.7386 36.6392 53.2273ZM45.7116 56.6364C45.081 56.6364 44.5369 56.4972 44.0795 56.2188C43.625 55.9375 43.2741 55.5455 43.027 55.0426C42.7827 54.5369 42.6605 53.9489 42.6605 53.2784C42.6605 52.608 42.7827 52.017 43.027 51.5057C43.2741 50.9915 43.6179 50.5909 44.0582 50.304C44.5014 50.0142 45.0185 49.8693 45.6094 49.8693C45.9503 49.8693 46.2869 49.9261 46.6193 50.0398C46.9517 50.1534 47.2543 50.3381 47.527 50.5938C47.7997 50.8466 48.017 51.1818 48.179 51.5994C48.3409 52.017 48.4219 52.5312 48.4219 53.142V53.5682H43.3764V52.6989H47.3991C47.3991 52.3295 47.3253 52 47.1776 51.7102C47.0327 51.4205 46.8253 51.1918 46.5554 51.0241C46.2884 50.8565 45.973 50.7727 45.6094 50.7727C45.2088 50.7727 44.8622 50.8722 44.5696 51.071C44.2798 51.267 44.0568 51.5227 43.9006 51.8381C43.7443 52.1534 43.6662 52.4915 43.6662 52.8523V53.4318C43.6662 53.9261 43.7514 54.3452 43.9219 54.6889C44.0952 55.0298 44.3352 55.2898 44.642 55.4688C44.9489 55.6449 45.3054 55.733 45.7116 55.733C45.9759 55.733 46.2145 55.696 46.4276 55.6222C46.6435 55.5455 46.8295 55.4318 46.9858 55.2812C47.142 55.1278 47.2628 54.9375 47.348 54.7102L48.3196 54.983C48.2173 55.3125 48.0455 55.6023 47.804 55.8523C47.5625 56.0994 47.2642 56.2926 46.9091 56.4318C46.554 56.5682 46.1548 56.6364 45.7116 56.6364ZM49.9517 56.5V49.9545H50.9233V50.9432H50.9915C51.1108 50.6193 51.3267 50.3565 51.6392 50.1548C51.9517 49.9531 52.304 49.8523 52.696 49.8523C52.7699 49.8523 52.8622 49.8537 52.973 49.8565C53.0838 49.8594 53.1676 49.8636 53.2244 49.8693V50.892C53.1903 50.8835 53.1122 50.8707 52.9901 50.8537C52.8707 50.8338 52.7443 50.8239 52.6108 50.8239C52.2926 50.8239 52.0085 50.8906 51.7585 51.0241C51.5114 51.1548 51.3153 51.3366 51.1705 51.5696C51.0284 51.7997 50.9574 52.0625 50.9574 52.358V56.5H49.9517Z" fill="#7C7C7C"/>
</svg>
