<svg width="60" height="65" viewBox="0 0 60 65" fill="none" xmlns="http://www.w3.org/2000/svg">
<rect width="60" height="65" rx="12" fill="#0B3C7F"/>
<path fill-rule="evenodd" clip-rule="evenodd" d="M24.0274 11.5279C25.0563 11.4458 26.0331 11.0412 26.8187 10.3717C28.652 8.80937 31.3484 8.80937 33.1817 10.3717C33.9673 11.0412 34.9441 11.4458 35.973 11.5279C38.374 11.7195 40.2807 13.6261 40.4723 16.0272C40.5544 17.0561 40.959 18.0329 41.6285 18.8185C43.1908 20.6518 43.1908 23.3481 41.6285 25.1814C40.959 25.967 40.5544 26.9438 40.4723 27.9727C40.2807 30.3738 38.374 32.2804 35.973 32.472C34.9441 32.5541 33.9673 32.9587 33.1817 33.6282C31.3484 35.1905 28.652 35.1905 26.8187 33.6282C26.0331 32.9587 25.0563 32.5541 24.0274 32.472C21.6264 32.2804 19.7197 30.3738 19.5281 27.9727C19.446 26.9438 19.0414 25.967 18.3719 25.1814C16.8096 23.3481 16.8096 20.6518 18.3719 18.8185C19.0414 18.0329 19.446 17.0561 19.5281 16.0272C19.7197 13.6261 21.6264 11.7195 24.0274 11.5279ZM35.9316 19.9313C36.5564 19.3065 36.5564 18.2934 35.9316 17.6686C35.3067 17.0437 34.2937 17.0437 33.6688 17.6686L28.4002 22.9372L26.3316 20.8686C25.7067 20.2437 24.6937 20.2437 24.0688 20.8686C23.444 21.4934 23.444 22.5065 24.0688 23.1313L27.2688 26.3313C27.8937 26.9562 28.9067 26.9562 29.5316 26.3313L35.9316 19.9313Z" fill="#FDFDFD"/>
<path d="M6.35423 47.2727H8.62979L11.0332 53.1364H11.1355L13.5389 47.2727H15.8145V56H14.0247V50.3196H13.9522L11.6937 55.9574H10.475L8.21644 50.2983H8.144V56H6.35423V47.2727ZM20.2836 56.1278C19.6103 56.1278 19.0307 55.9915 18.5449 55.7188C18.062 55.4432 17.6898 55.054 17.4284 54.5511C17.1671 54.0455 17.0364 53.4474 17.0364 52.7571C17.0364 52.0838 17.1671 51.4929 17.4284 50.9844C17.6898 50.4759 18.0577 50.0795 18.5321 49.7955C19.0094 49.5114 19.5691 49.3693 20.2111 49.3693C20.6429 49.3693 21.0449 49.4389 21.4171 49.5781C21.7921 49.7145 22.1188 49.9205 22.3972 50.196C22.6784 50.4716 22.8972 50.8182 23.0534 51.2358C23.2097 51.6506 23.2878 52.1364 23.2878 52.6932V53.1918H17.7608V52.0668H21.579C21.579 51.8054 21.5222 51.5739 21.4086 51.3722C21.2949 51.1705 21.1373 51.0128 20.9355 50.8991C20.7367 50.7827 20.5051 50.7244 20.2409 50.7244C19.9654 50.7244 19.7211 50.7884 19.508 50.9162C19.2978 51.0412 19.133 51.2102 19.0137 51.4233C18.8944 51.6335 18.8333 51.8679 18.8304 52.1264V53.196C18.8304 53.5199 18.8901 53.7997 19.0094 54.0355C19.1316 54.2713 19.3034 54.4531 19.525 54.581C19.7466 54.7088 20.0094 54.7727 20.3134 54.7727C20.5151 54.7727 20.6998 54.7443 20.8674 54.6875C21.035 54.6307 21.1784 54.5455 21.2978 54.4318C21.4171 54.3182 21.508 54.179 21.5705 54.0142L23.2495 54.125C23.1642 54.5284 22.9895 54.8807 22.7253 55.1818C22.464 55.4801 22.1259 55.7131 21.7111 55.8807C21.2992 56.0455 20.8233 56.1278 20.2836 56.1278ZM24.4725 56V49.4545H26.2026V50.6094H26.2793C26.4157 50.2259 26.6429 49.9233 26.9611 49.7017C27.2793 49.4801 27.66 49.3693 28.1032 49.3693C28.552 49.3693 28.9341 49.4815 29.2495 49.706C29.5648 49.9276 29.775 50.2287 29.8801 50.6094H29.9483C30.0819 50.2344 30.3233 49.9347 30.6728 49.7102C31.025 49.483 31.4412 49.3693 31.9213 49.3693C32.5321 49.3693 33.0279 49.5639 33.4086 49.9531C33.7921 50.3395 33.9838 50.8878 33.9838 51.598V56H32.1728V51.956C32.1728 51.5923 32.0762 51.3196 31.883 51.1378C31.6898 50.956 31.4483 50.8651 31.1586 50.8651C30.829 50.8651 30.5719 50.9702 30.3873 51.1804C30.2026 51.3878 30.1103 51.6619 30.1103 52.0028V56H28.3503V51.9176C28.3503 51.5966 28.258 51.3409 28.0733 51.1506C27.8915 50.9602 27.6515 50.8651 27.3532 50.8651C27.1515 50.8651 26.9696 50.9162 26.8077 51.0185C26.6486 51.1179 26.5222 51.2585 26.4284 51.4403C26.3347 51.6193 26.2878 51.8295 26.2878 52.071V56H24.4725ZM35.4519 56V47.2727H37.2672V50.554H37.3226C37.4022 50.3778 37.5172 50.1989 37.6678 50.017C37.8212 49.8324 38.0201 49.679 38.2644 49.5568C38.5115 49.4318 38.8184 49.3693 39.1848 49.3693C39.6621 49.3693 40.1025 49.4943 40.5059 49.7443C40.9093 49.9915 41.2317 50.3651 41.4732 50.8651C41.7147 51.3622 41.8354 51.9858 41.8354 52.7358C41.8354 53.4659 41.7175 54.0824 41.4817 54.5852C41.2488 55.0852 40.9306 55.4645 40.5272 55.723C40.1266 55.9787 39.6777 56.1065 39.1806 56.1065C38.8283 56.1065 38.5286 56.0483 38.2814 55.9318C38.0371 55.8153 37.8368 55.669 37.6806 55.4929C37.5243 55.3139 37.405 55.1335 37.3226 54.9517H37.2417V56H35.4519ZM37.2289 52.7273C37.2289 53.1165 37.2828 53.456 37.3908 53.7457C37.4988 54.0355 37.655 54.2614 37.8596 54.4233C38.0641 54.5824 38.3127 54.6619 38.6053 54.6619C38.9007 54.6619 39.1507 54.581 39.3553 54.419C39.5598 54.2543 39.7147 54.027 39.8198 53.7372C39.9277 53.4446 39.9817 53.108 39.9817 52.7273C39.9817 52.3494 39.9292 52.017 39.824 51.7301C39.7189 51.4432 39.5641 51.2187 39.3596 51.0568C39.155 50.8949 38.9036 50.8139 38.6053 50.8139C38.3098 50.8139 38.0598 50.892 37.8553 51.0483C37.6536 51.2045 37.4988 51.4261 37.3908 51.7131C37.2828 52 37.2289 52.3381 37.2289 52.7273ZM46.0297 56.1278C45.3564 56.1278 44.7768 55.9915 44.291 55.7188C43.8081 55.4432 43.4359 55.054 43.1745 54.5511C42.9132 54.0455 42.7825 53.4474 42.7825 52.7571C42.7825 52.0838 42.9132 51.4929 43.1745 50.9844C43.4359 50.4759 43.8038 50.0795 44.2782 49.7955C44.7555 49.5114 45.3152 49.3693 45.9572 49.3693C46.389 49.3693 46.791 49.4389 47.1632 49.5781C47.5382 49.7145 47.8649 49.9205 48.1433 50.196C48.4245 50.4716 48.6433 50.8182 48.7995 51.2358C48.9558 51.6506 49.0339 52.1364 49.0339 52.6932V53.1918H43.5069V52.0668H47.3251C47.3251 51.8054 47.2683 51.5739 47.1547 51.3722C47.041 51.1705 46.8833 51.0128 46.6816 50.8991C46.4828 50.7827 46.2512 50.7244 45.987 50.7244C45.7115 50.7244 45.4672 50.7884 45.2541 50.9162C45.0439 51.0412 44.8791 51.2102 44.7598 51.4233C44.6404 51.6335 44.5794 51.8679 44.5765 52.1264V53.196C44.5765 53.5199 44.6362 53.7997 44.7555 54.0355C44.8777 54.2713 45.0495 54.4531 45.2711 54.581C45.4927 54.7088 45.7555 54.7727 46.0595 54.7727C46.2612 54.7727 46.4458 54.7443 46.6135 54.6875C46.7811 54.6307 46.9245 54.5455 47.0439 54.4318C47.1632 54.3182 47.2541 54.179 47.3166 54.0142L48.9956 54.125C48.9103 54.5284 48.7356 54.8807 48.4714 55.1818C48.21 55.4801 47.872 55.7131 47.4572 55.8807C47.0453 56.0455 46.5694 56.1278 46.0297 56.1278ZM50.2186 56V49.4545H51.9785V50.5966H52.0467C52.166 50.1903 52.3663 49.8835 52.6475 49.6761C52.9288 49.4659 53.2527 49.3608 53.6191 49.3608C53.71 49.3608 53.8081 49.3665 53.9132 49.3778C54.0183 49.3892 54.1106 49.4048 54.1902 49.4247V51.0355C54.1049 51.0099 53.987 50.9872 53.8365 50.9673C53.6859 50.9474 53.5481 50.9375 53.4231 50.9375C53.1561 50.9375 52.9174 50.9957 52.7072 51.1122C52.4998 51.2259 52.335 51.3849 52.2129 51.5895C52.0936 51.794 52.0339 52.0298 52.0339 52.2969V56H50.2186Z" fill="#FDFDFD"/>
</svg>
