<svg width="60" height="66" viewBox="0 0 60 66" fill="none" xmlns="http://www.w3.org/2000/svg">
<path d="M19.7574 14.9241C17.4142 17.2673 17.4142 21.0662 19.7574 23.4094L30.0001 33.6521L40.2426 23.4094C42.5858 21.0662 42.5858 17.2673 40.2426 14.9241C37.8995 12.581 34.1005 12.581 31.7574 14.9241L30.0001 16.6815L28.2426 14.9241C25.8995 12.581 22.1005 12.581 19.7574 14.9241Z" stroke="#7C7C7C" stroke-width="2" stroke-linecap="round" stroke-linejoin="round"/>
<path d="M10.6811 56.5L8.29474 47.7727H9.36861L11.1925 54.8807H11.2777L13.1357 47.7727H14.3288L16.1868 54.8807H16.272L18.0959 47.7727H19.1697L16.7834 56.5H15.6925L13.7663 49.5455H13.6982L11.772 56.5H10.6811ZM20.3501 56.5V49.9545H21.3558V56.5H20.3501ZM20.8615 48.8636C20.6655 48.8636 20.4964 48.7969 20.3544 48.6634C20.2152 48.5298 20.1456 48.3693 20.1456 48.1818C20.1456 47.9943 20.2152 47.8338 20.3544 47.7003C20.4964 47.5668 20.6655 47.5 20.8615 47.5C21.0575 47.5 21.2251 47.5668 21.3643 47.7003C21.5064 47.8338 21.5774 47.9943 21.5774 48.1818C21.5774 48.3693 21.5064 48.5298 21.3643 48.6634C21.2251 48.7969 21.0575 48.8636 20.8615 48.8636ZM27.8342 51.4205L26.9308 51.6761C26.8739 51.5256 26.7901 51.3793 26.6793 51.2372C26.5714 51.0923 26.4237 50.973 26.2362 50.8793C26.0487 50.7855 25.8086 50.7386 25.516 50.7386C25.1154 50.7386 24.7816 50.831 24.5146 51.0156C24.2504 51.1974 24.1183 51.429 24.1183 51.7102C24.1183 51.9602 24.2092 52.1577 24.391 52.3026C24.5728 52.4474 24.8569 52.5682 25.2433 52.6648L26.2148 52.9034C26.8001 53.0455 27.2362 53.2628 27.5231 53.5554C27.81 53.8452 27.9535 54.2187 27.9535 54.6761C27.9535 55.0511 27.8455 55.3864 27.6296 55.6818C27.4165 55.9773 27.1183 56.2102 26.7347 56.3807C26.3512 56.5511 25.9052 56.6364 25.3967 56.6364C24.729 56.6364 24.1765 56.4915 23.739 56.2017C23.3015 55.9119 23.0245 55.4886 22.908 54.9318L23.8626 54.6932C23.9535 55.0455 24.1254 55.3097 24.3782 55.4858C24.6339 55.6619 24.9677 55.75 25.3796 55.75C25.8484 55.75 26.2205 55.6506 26.4961 55.4517C26.7745 55.25 26.9137 55.0085 26.9137 54.7273C26.9137 54.5 26.8342 54.3097 26.6751 54.1562C26.516 54 26.2717 53.8835 25.9421 53.8068L24.8512 53.5511C24.2518 53.4091 23.8114 53.1889 23.5302 52.8906C23.2518 52.5895 23.1126 52.2131 23.1126 51.7614C23.1126 51.392 23.2163 51.0653 23.4237 50.7812C23.6339 50.4972 23.9194 50.2741 24.2802 50.1122C24.6438 49.9503 25.0558 49.8693 25.516 49.8693C26.1637 49.8693 26.6722 50.0114 27.0415 50.2955C27.4137 50.5795 27.6779 50.9545 27.8342 51.4205ZM30.473 52.5625V56.5H29.4673V47.7727H30.473V50.9773H30.5582C30.7116 50.6392 30.9418 50.3707 31.2486 50.1719C31.5582 49.9702 31.9702 49.8693 32.4844 49.8693C32.9304 49.8693 33.321 49.9588 33.6562 50.1378C33.9915 50.3139 34.2514 50.5852 34.4361 50.9517C34.6236 51.3153 34.7173 51.7784 34.7173 52.3409V56.5H33.7116V52.4091C33.7116 51.8892 33.5767 51.4872 33.3068 51.2031C33.0398 50.9162 32.669 50.7727 32.1946 50.7727C31.8651 50.7727 31.5696 50.8423 31.3082 50.9815C31.0497 51.1207 30.8452 51.3239 30.6946 51.5909C30.5469 51.858 30.473 52.1818 30.473 52.5625ZM37.5629 47.7727V56.5H36.5572V47.7727H37.5629ZM39.4048 56.5V49.9545H40.4105V56.5H39.4048ZM39.9162 48.8636C39.7202 48.8636 39.5511 48.7969 39.4091 48.6634C39.2699 48.5298 39.2003 48.3693 39.2003 48.1818C39.2003 47.9943 39.2699 47.8338 39.4091 47.7003C39.5511 47.5668 39.7202 47.5 39.9162 47.5C40.1122 47.5 40.2798 47.5668 40.419 47.7003C40.5611 47.8338 40.6321 47.9943 40.6321 48.1818C40.6321 48.3693 40.5611 48.5298 40.419 48.6634C40.2798 48.7969 40.1122 48.8636 39.9162 48.8636ZM46.8888 51.4205L45.9854 51.6761C45.9286 51.5256 45.8448 51.3793 45.734 51.2372C45.6261 51.0923 45.4783 50.973 45.2908 50.8793C45.1033 50.7855 44.8633 50.7386 44.5707 50.7386C44.1701 50.7386 43.8363 50.831 43.5692 51.0156C43.305 51.1974 43.1729 51.429 43.1729 51.7102C43.1729 51.9602 43.2638 52.1577 43.4457 52.3026C43.6275 52.4474 43.9116 52.5682 44.2979 52.6648L45.2695 52.9034C45.8548 53.0455 46.2908 53.2628 46.5778 53.5554C46.8647 53.8452 47.0082 54.2187 47.0082 54.6761C47.0082 55.0511 46.9002 55.3864 46.6843 55.6818C46.4712 55.9773 46.1729 56.2102 45.7894 56.3807C45.4059 56.5511 44.9599 56.6364 44.4513 56.6364C43.7837 56.6364 43.2312 56.4915 42.7937 56.2017C42.3562 55.9119 42.0792 55.4886 41.9627 54.9318L42.9173 54.6932C43.0082 55.0455 43.18 55.3097 43.4329 55.4858C43.6886 55.6619 44.0224 55.75 44.4343 55.75C44.9031 55.75 45.2752 55.6506 45.5508 55.4517C45.8292 55.25 45.9684 55.0085 45.9684 54.7273C45.9684 54.5 45.8888 54.3097 45.7298 54.1562C45.5707 54 45.3263 53.8835 44.9968 53.8068L43.9059 53.5511C43.3065 53.4091 42.8661 53.1889 42.5849 52.8906C42.3065 52.5895 42.1673 52.2131 42.1673 51.7614C42.1673 51.392 42.271 51.0653 42.4783 50.7812C42.6886 50.4972 42.9741 50.2741 43.3349 50.1122C43.6985 49.9503 44.1104 49.8693 44.5707 49.8693C45.2184 49.8693 45.7269 50.0114 46.0962 50.2955C46.4684 50.5795 46.7326 50.9545 46.8888 51.4205ZM51.3686 49.9545V50.8068H47.9766V49.9545H51.3686ZM48.9652 48.3864H49.9709V54.625C49.9709 54.9091 50.0121 55.1222 50.0945 55.2642C50.1797 55.4034 50.2876 55.4972 50.4183 55.5455C50.5518 55.5909 50.6925 55.6136 50.8402 55.6136C50.951 55.6136 51.0419 55.608 51.1129 55.5966C51.1839 55.5824 51.2408 55.571 51.2834 55.5625L51.4879 56.4659C51.4197 56.4915 51.3246 56.517 51.2024 56.5426C51.0803 56.571 50.9254 56.5852 50.7379 56.5852C50.4538 56.5852 50.1754 56.5241 49.9027 56.402C49.6328 56.2798 49.4084 56.0938 49.2294 55.8438C49.0533 55.5938 48.9652 55.2784 48.9652 54.8977V48.3864Z" fill="#7C7C7C"/>
</svg>
