<svg width="60" height="65" viewBox="0 0 60 65" fill="none" xmlns="http://www.w3.org/2000/svg">
<path fill-rule="evenodd" clip-rule="evenodd" d="M19.0747 14.2744C21.5741 11.7751 25.6263 11.7751 28.1257 14.2744L30.0002 16.1489L31.8747 14.2744C34.3741 11.7751 38.4263 11.7751 40.9257 14.2744C43.425 16.7738 43.425 20.826 40.9257 23.3254L30.0002 34.2509L19.0747 23.3254C16.5754 20.826 16.5754 16.7738 19.0747 14.2744Z" fill="#070707"/>
<path d="M8.78746 56L6.29031 47.2727H8.30593L9.75053 53.3366H9.82298L11.4167 47.2727H13.1426L14.7321 53.3494H14.8088L16.2534 47.2727H18.269L15.7718 56H13.9735L12.3116 50.294H12.2434L10.5858 56H8.78746ZM19.2225 56V49.4545H21.0378V56H19.2225ZM20.1344 48.6108C19.8645 48.6108 19.633 48.5213 19.4398 48.3423C19.2495 48.1605 19.1543 47.9432 19.1543 47.6903C19.1543 47.4403 19.2495 47.2259 19.4398 47.0469C19.633 46.8651 19.8645 46.7741 20.1344 46.7741C20.4043 46.7741 20.6344 46.8651 20.8248 47.0469C21.0179 47.2259 21.1145 47.4403 21.1145 47.6903C21.1145 47.9432 21.0179 48.1605 20.8248 48.3423C20.6344 48.5213 20.4043 48.6108 20.1344 48.6108ZM27.938 51.321L26.2761 51.4233C26.2477 51.2812 26.1866 51.1534 26.0929 51.0398C25.9991 50.9233 25.8755 50.831 25.7221 50.7628C25.5716 50.6918 25.3912 50.6562 25.1809 50.6562C24.8997 50.6562 24.6625 50.7159 24.4693 50.8352C24.2761 50.9517 24.1795 51.108 24.1795 51.304C24.1795 51.4602 24.242 51.5923 24.367 51.7003C24.492 51.8082 24.7065 51.8949 25.0105 51.9602L26.1951 52.1989C26.8315 52.3295 27.3059 52.5398 27.6184 52.8295C27.9309 53.1193 28.0872 53.5 28.0872 53.9716C28.0872 54.4006 27.9608 54.777 27.7079 55.1009C27.4579 55.4247 27.1142 55.6776 26.6767 55.8594C26.242 56.0384 25.7406 56.1278 25.1724 56.1278C24.3059 56.1278 23.6156 55.9474 23.1014 55.5866C22.59 55.223 22.2903 54.7287 22.2022 54.1037L23.9877 54.0099C24.0417 54.2741 24.1724 54.4759 24.3798 54.6151C24.5872 54.7514 24.8528 54.8196 25.1767 54.8196C25.4949 54.8196 25.7505 54.7585 25.9437 54.6364C26.1397 54.5114 26.2392 54.3509 26.242 54.1548C26.2392 53.9901 26.1696 53.8551 26.0332 53.75C25.8968 53.642 25.6866 53.5597 25.4025 53.5028L24.269 53.277C23.6298 53.1491 23.1539 52.9276 22.8414 52.6122C22.5318 52.2969 22.377 51.8949 22.377 51.4062C22.377 50.9858 22.4906 50.6236 22.7179 50.3196C22.948 50.0156 23.2704 49.7812 23.6852 49.6165C24.1028 49.4517 24.5914 49.3693 25.1511 49.3693C25.9778 49.3693 26.6284 49.544 27.1028 49.8935C27.5801 50.2429 27.8585 50.7187 27.938 51.321ZM31.0456 52.2159V56H29.2303V47.2727H30.9945V50.6094H31.0712C31.2189 50.223 31.4576 49.9205 31.7871 49.7017C32.1167 49.4801 32.53 49.3693 33.0272 49.3693C33.4817 49.3693 33.878 49.4688 34.2161 49.6676C34.557 49.8636 34.8212 50.1463 35.0087 50.5156C35.199 50.8821 35.2928 51.321 35.29 51.8324V56H33.4746V52.1562C33.4775 51.7528 33.3752 51.4389 33.1678 51.2145C32.9632 50.9901 32.6763 50.8778 32.307 50.8778C32.0598 50.8778 31.8411 50.9304 31.6507 51.0355C31.4632 51.1406 31.3155 51.294 31.2076 51.4957C31.1025 51.6946 31.0485 51.9347 31.0456 52.2159ZM38.5339 47.2727V56H36.7186V47.2727H38.5339ZM39.9881 56V49.4545H41.8034V56H39.9881ZM40.9 48.6108C40.6301 48.6108 40.3986 48.5213 40.2054 48.3423C40.0151 48.1605 39.9199 47.9432 39.9199 47.6903C39.9199 47.4403 40.0151 47.2259 40.2054 47.0469C40.3986 46.8651 40.6301 46.7741 40.9 46.7741C41.1699 46.7741 41.4 46.8651 41.5904 47.0469C41.7836 47.2259 41.8801 47.4403 41.8801 47.6903C41.8801 47.9432 41.7836 48.1605 41.5904 48.3423C41.4 48.5213 41.1699 48.6108 40.9 48.6108ZM48.7037 51.321L47.0417 51.4233C47.0133 51.2812 46.9522 51.1534 46.8585 51.0398C46.7647 50.9233 46.6412 50.831 46.4877 50.7628C46.3372 50.6918 46.1568 50.6562 45.9466 50.6562C45.6653 50.6562 45.4281 50.7159 45.2349 50.8352C45.0417 50.9517 44.9451 51.108 44.9451 51.304C44.9451 51.4602 45.0076 51.5923 45.1326 51.7003C45.2576 51.8082 45.4721 51.8949 45.7761 51.9602L46.9608 52.1989C47.5971 52.3295 48.0716 52.5398 48.3841 52.8295C48.6966 53.1193 48.8528 53.5 48.8528 53.9716C48.8528 54.4006 48.7264 54.777 48.4735 55.1009C48.2235 55.4247 47.8798 55.6776 47.4423 55.8594C47.0076 56.0384 46.5062 56.1278 45.938 56.1278C45.0716 56.1278 44.3812 55.9474 43.867 55.5866C43.3556 55.223 43.0559 54.7287 42.9679 54.1037L44.7534 54.0099C44.8074 54.2741 44.938 54.4759 45.1454 54.6151C45.3528 54.7514 45.6184 54.8196 45.9423 54.8196C46.2605 54.8196 46.5162 54.7585 46.7093 54.6364C46.9054 54.5114 47.0048 54.3509 47.0076 54.1548C47.0048 53.9901 46.9352 53.8551 46.7988 53.75C46.6625 53.642 46.4522 53.5597 46.1681 53.5028L45.0346 53.277C44.3954 53.1491 43.9196 52.9276 43.6071 52.6122C43.2974 52.2969 43.1426 51.8949 43.1426 51.4062C43.1426 50.9858 43.2562 50.6236 43.4835 50.3196C43.7136 50.0156 44.036 49.7812 44.4508 49.6165C44.8684 49.4517 45.3571 49.3693 45.9167 49.3693C46.7434 49.3693 47.394 49.544 47.8684 49.8935C48.3457 50.2429 48.6241 50.7187 48.7037 51.321ZM53.4775 49.4545V50.8182H49.5357V49.4545H53.4775ZM50.4306 47.8864H52.2459V53.9886C52.2459 54.1562 52.2715 54.2869 52.3226 54.3807C52.3738 54.4716 52.4448 54.5355 52.5357 54.5724C52.6294 54.6094 52.7374 54.6278 52.8596 54.6278C52.9448 54.6278 53.03 54.6207 53.1152 54.6065C53.2005 54.5895 53.2658 54.5767 53.3113 54.5682L53.5968 55.919C53.5059 55.9474 53.378 55.9801 53.2132 56.017C53.0485 56.0568 52.8482 56.081 52.6124 56.0895C52.1749 56.1065 51.7914 56.0483 51.4618 55.9148C51.1351 55.7812 50.8809 55.5739 50.699 55.2926C50.5172 55.0114 50.4277 54.6562 50.4306 54.2273V47.8864Z" fill="#252525"/>
</svg>
