<svg width="16" height="16" viewBox="0 0 16 16" fill="none" xmlns="http://www.w3.org/2000/svg">
<g id="Icon/Solid/clock">
<path id="Icon" fill-rule="evenodd" clip-rule="evenodd" d="M8.00001 14.4016C11.5346 14.4016 14.4 11.5362 14.4 8.00156C14.4 4.46694 11.5346 1.60156 8.00001 1.60156C4.46538 1.60156 1.60001 4.46694 1.60001 8.00156C1.60001 11.5362 4.46538 14.4016 8.00001 14.4016ZM9.00001 4.80156C9.00001 4.24928 8.55229 3.80156 8.00001 3.80156C7.44772 3.80156 7.00001 4.24928 7.00001 4.80156V8.00156C7.00001 8.26678 7.10536 8.52113 7.2929 8.70867L9.55564 10.9714C9.94617 11.3619 10.5793 11.3619 10.9699 10.9714C11.3604 10.5809 11.3604 9.94772 10.9699 9.5572L9.00001 7.58735V4.80156Z" fill="#6E6E6E"/>
</g>
</svg>
