<svg width="20" height="20" viewBox="0 0 20 20" fill="none" xmlns="http://www.w3.org/2000/svg">
<path d="M9.99998 4.99967V3.33301M9.99998 4.99967C9.0795 4.99967 8.33331 5.74587 8.33331 6.66634C8.33331 7.58682 9.0795 8.33301 9.99998 8.33301M9.99998 4.99967C10.9205 4.99967 11.6666 5.74587 11.6666 6.66634C11.6666 7.58682 10.9205 8.33301 9.99998 8.33301M4.99998 14.9997C5.92045 14.9997 6.66665 14.2535 6.66665 13.333C6.66665 12.4125 5.92045 11.6663 4.99998 11.6663M4.99998 14.9997C4.07951 14.9997 3.33331 14.2535 3.33331 13.333C3.33331 12.4125 4.07951 11.6663 4.99998 11.6663M4.99998 14.9997V16.6663M4.99998 11.6663V3.33301M9.99998 8.33301V16.6663M15 14.9997C15.9205 14.9997 16.6666 14.2535 16.6666 13.333C16.6666 12.4125 15.9205 11.6663 15 11.6663M15 14.9997C14.0795 14.9997 13.3333 14.2535 13.3333 13.333C13.3333 12.4125 14.0795 11.6663 15 11.6663M15 14.9997V16.6663M15 11.6663V3.33301" stroke="#070707" stroke-width="2" stroke-linecap="round" stroke-linejoin="round"/>
</svg>
