<svg width="21" height="21" viewBox="0 0 21 21" fill="none" xmlns="http://www.w3.org/2000/svg">
<g id="Icon/Solid/book-open">
<path id="Icon" d="M9.3335 5.30423C8.2763 4.78906 7.08865 4.5 5.8335 4.5C4.57834 4.5 3.39069 4.78906 2.3335 5.30423V15.3042C3.39069 14.7891 4.57834 14.5 5.8335 14.5C7.5021 14.5 9.05139 15.0108 10.3335 15.8847C11.6156 15.0108 13.1649 14.5 14.8335 14.5C16.0887 14.5 17.2763 14.7891 18.3335 15.3042V5.30423C17.2763 4.78906 16.0887 4.5 14.8335 4.5C13.5783 4.5 12.3907 4.78906 11.3335 5.30423V12.5C11.3335 13.0523 10.8858 13.5 10.3335 13.5C9.78121 13.5 9.3335 13.0523 9.3335 12.5V5.30423Z" fill="#E68831"/>
</g>
</svg>
