<svg width="21" height="21" viewBox="0 0 21 21" fill="none" xmlns="http://www.w3.org/2000/svg">
<path fill-rule="evenodd" clip-rule="evenodd" d="M11.8227 3.67094C11.4437 2.10969 9.2233 2.10969 8.84428 3.67094C8.59943 4.67949 7.44395 5.15811 6.55766 4.61809C5.18568 3.78212 3.61562 5.35218 4.45158 6.72416C4.99161 7.61045 4.51299 8.76593 3.50444 9.01078C1.94318 9.3898 1.94318 11.6102 3.50444 11.9892C4.51299 12.2341 4.99161 13.3896 4.45159 14.2758C3.61562 15.6478 5.18568 17.2179 6.55766 16.3819C7.44395 15.8419 8.59943 16.3205 8.84428 17.3291C9.2233 18.8903 11.4437 18.8903 11.8227 17.3291C12.0676 16.3205 13.223 15.8419 14.1093 16.3819C15.4813 17.2179 17.0514 15.6478 16.2154 14.2758C15.6754 13.3896 16.154 12.2341 17.1626 11.9892C18.7238 11.6102 18.7238 9.3898 17.1626 9.01078C16.154 8.76593 15.6754 7.61045 16.2154 6.72416C17.0514 5.35218 15.4813 3.78212 14.1093 4.61809C13.223 5.15811 12.0676 4.67949 11.8227 3.67094ZM10.3335 13.5C11.9904 13.5 13.3335 12.1569 13.3335 10.5C13.3335 8.84315 11.9904 7.5 10.3335 7.5C8.67664 7.5 7.3335 8.84315 7.3335 10.5C7.3335 12.1569 8.67664 13.5 10.3335 13.5Z" fill="#E68831"/>
</svg>
