<svg width="12" height="12" viewBox="0 0 12 12" fill="none" xmlns="http://www.w3.org/2000/svg">
<path d="M2.86987 10.0771H9.16008V10.3239H2.86987V10.0771Z" fill="#070707"/>
<path d="M9.95133 6.76025L8.54411 5.06933L7.8815 6.75871L8.12391 8.96688H6.94636L8.37635 4.85362L6.02523 1.68408L3.67395 4.84454L5.10393 8.96705H3.88414L4.12655 6.75888L3.46408 5.05665L2.04419 6.75393L2.84825 8.96707H2.86988V9.7073H9.16008V8.96707H9.13458L9.95133 6.76025ZM6.0035 5.47588C5.62461 5.47588 5.3176 5.16864 5.3176 4.78977C5.3176 4.41076 5.62474 4.10359 6.0035 4.10359C6.38228 4.10359 6.6894 4.41082 6.6894 4.78977C6.68947 5.16871 6.38233 5.47588 6.0035 5.47588Z" fill="#FFC619"/>
</svg>
