<svg width="21" height="20" viewBox="0 0 21 20" fill="none" xmlns="http://www.w3.org/2000/svg">
<g id="flat-color-icons:google">
<path id="Vector" d="M18.6712 8.36727H18V8.33268H10.5V11.666H15.2095C14.5225 13.6064 12.6762 14.9993 10.5 14.9993C7.73871 14.9993 5.49996 12.7606 5.49996 9.99935C5.49996 7.2381 7.73871 4.99935 10.5 4.99935C11.7745 4.99935 12.9341 5.48018 13.817 6.2656L16.1741 3.90852C14.6858 2.52143 12.695 1.66602 10.5 1.66602C5.89788 1.66602 2.16663 5.39727 2.16663 9.99935C2.16663 14.6014 5.89788 18.3327 10.5 18.3327C15.102 18.3327 18.8333 14.6014 18.8333 9.99935C18.8333 9.4406 18.7758 8.89518 18.6712 8.36727Z" fill="#FFC107"/>
<path id="Vector_2" d="M3.12744 6.1206L5.86536 8.12852C6.60619 6.29435 8.40036 4.99935 10.4999 4.99935C11.7745 4.99935 12.9341 5.48018 13.817 6.2656L16.1741 3.90852C14.6858 2.52143 12.6949 1.66602 10.4999 1.66602C7.29911 1.66602 4.52327 3.4731 3.12744 6.1206Z" fill="#FF3D00"/>
<path id="Vector_3" d="M10.5 18.3336C12.6525 18.3336 14.6084 17.5099 16.0871 16.1703L13.508 13.9878C12.6432 14.6454 11.5865 15.0011 10.5 15.0003C8.33255 15.0003 6.49213 13.6182 5.7988 11.6895L3.0813 13.7832C4.46047 16.482 7.2613 18.3336 10.5 18.3336Z" fill="#4CAF50"/>
<path id="Vector_4" d="M18.6713 8.36857H18V8.33398H10.5V11.6673H15.2096C14.8809 12.5908 14.2889 13.3978 13.5067 13.9886L13.5079 13.9877L16.0871 16.1702C15.9046 16.3361 18.8333 14.1673 18.8333 10.0007C18.8333 9.4419 18.7758 8.89648 18.6713 8.36857Z" fill="#1976D2"/>
</g>
</svg>
