<svg width="17" height="16" viewBox="0 0 17 16" fill="none" xmlns="http://www.w3.org/2000/svg">
<circle cx="8.5" cy="8" r="8" fill="#805C00"/>
<path d="M5.36998 12.0781H11.6602V12.3248H5.36998V12.0781Z" fill="#070707"/>
<path d="M12.4514 8.76074L11.0442 7.06982L10.3816 8.7592L10.624 10.9674H9.44646L10.8764 6.85411L8.52532 3.68457L6.17404 6.84503L7.60402 10.9675H6.38423L6.62664 8.75937L5.96417 7.05714L4.54428 8.75442L5.34835 10.9676H5.36997V11.7078H11.6602V10.9676H11.6347L12.4514 8.76074ZM8.50359 7.47636C8.1247 7.47636 7.81769 7.16913 7.81769 6.79026C7.81769 6.41124 8.12483 6.10408 8.50359 6.10408C8.88237 6.10408 9.18949 6.41131 9.18949 6.79026C9.18956 7.1692 8.88242 7.47636 8.50359 7.47636Z" fill="#FFC619"/>
</svg>
