<svg width="16" height="16" viewBox="0 0 16 16" fill="none" xmlns="http://www.w3.org/2000/svg">
<circle cx="8" cy="8" r="8" fill="#FFDB7D"/>
<path d="M4.87 12.0762H11.1602V12.3229H4.87V12.0762Z" fill="#070707"/>
<path d="M11.9515 8.75976L10.5442 7.06885L9.88162 8.75822L10.124 10.9664H8.94649L10.3765 6.85314L8.02535 3.68359L5.67407 6.84405L7.10405 10.9666H5.88426L6.12667 8.75839L5.4642 7.05616L4.04431 8.75344L4.84838 10.9666H4.87V11.7068H11.1602V10.9666H11.1347L11.9515 8.75976ZM8.00362 7.47539C7.62473 7.47539 7.31772 7.16815 7.31772 6.78928C7.31772 6.41027 7.62486 6.1031 8.00362 6.1031C8.3824 6.1031 8.68952 6.41034 8.68952 6.78928C8.68959 7.16822 8.38245 7.47539 8.00362 7.47539Z" fill="#070707"/>
</svg>
