<svg width="20" height="20" viewBox="0 0 20 20" fill="none" xmlns="http://www.w3.org/2000/svg">
<path d="M17.6124 6.97124L17.6124 6.96413L17.6114 6.9571C17.6111 6.9554 17.6109 6.95366 17.6107 6.95184C17.6102 6.94785 17.6097 6.94345 17.6091 6.93813C17.6084 6.93093 17.6074 6.92175 17.6061 6.91235C17.6035 6.89375 17.599 6.86986 17.5886 6.84465L16.5888 4.23608L16.5887 4.23598C16.5367 4.10077 16.4069 4.01132 16.2619 4.01132L4.10761 4.01143V3.2571C4.10761 3.17445 4.17504 3.10701 4.2577 3.10701H15.7618C15.8445 3.10701 15.9118 3.17442 15.9118 3.2571V3.36115C15.9118 3.55446 16.0685 3.71124 16.2619 3.71124C16.4554 3.71124 16.612 3.55446 16.612 3.36115V3.2571C16.612 2.7881 16.2308 2.40684 15.7618 2.40684H4.2577C3.7887 2.40684 3.40743 2.7881 3.40743 3.2571V4.29677L2.43083 6.84473C2.42047 6.86994 2.41599 6.89387 2.41339 6.91243C2.41213 6.92145 2.41118 6.93027 2.41042 6.93733L2.41033 6.93823C2.4095 6.946 2.40886 6.95179 2.40809 6.95721L2.40708 6.96424V6.97135V8.02909C2.40708 9.02204 3.21471 9.82981 4.20768 9.82981C4.80346 9.82981 5.33074 9.53802 5.65829 9.09167C5.98576 9.53809 6.51304 9.82981 7.10882 9.82981C7.7046 9.82981 8.23188 9.53802 8.55942 9.09167C8.88689 9.53809 9.41418 9.82981 10.01 9.82981C10.6057 9.82981 11.133 9.53803 11.4605 9.09168C11.7879 9.5381 12.3152 9.82981 12.911 9.82981C13.5068 9.82981 14.0342 9.53804 14.3617 9.09168C14.6892 9.5381 15.2165 9.82981 15.8122 9.82981C16.0546 9.82981 16.2856 9.78098 16.4967 9.6935V16.2617C16.4967 16.6202 16.2049 16.9119 15.8464 16.9119H15.7866V12.8299C15.7866 12.3609 15.4054 11.9796 14.9364 11.9796H11.5243C11.0553 11.9796 10.674 12.3609 10.674 12.8299V16.9119H4.1737C3.81516 16.9119 3.52344 16.6202 3.52344 16.2617V10.2504C3.52344 10.0571 3.36668 9.90032 3.17335 9.90032C2.98002 9.90032 2.82326 10.0571 2.82326 10.2504V16.2617C2.82326 17.0063 3.42906 17.6121 4.1737 17.6121H15.8461C16.5908 17.6121 17.1965 17.0063 17.1965 16.2617V9.1767C17.4553 8.86511 17.6124 8.46552 17.6124 8.02913L17.6124 6.97124ZM5.30817 8.02904C5.30817 8.6305 4.82301 9.12099 4.22343 9.12947H4.20775C3.60115 9.12947 3.10733 8.63576 3.10733 8.02893V7.32128L5.30817 7.32138V8.02904ZM8.2092 8.02893C8.2092 8.63562 7.71555 9.12941 7.10877 9.12947H7.10866C6.50211 9.12941 6.00835 8.63573 6.00835 8.02893V7.32127H8.2092V8.02893ZM11.1101 8.02893C11.1101 8.63562 10.6165 9.12941 10.0098 9.12947H10.0097C9.40313 9.12941 8.90938 8.63573 8.90938 8.02893V7.32127H11.1101V8.02893ZM14.0114 8.02893C14.0114 8.63561 13.5177 9.12941 12.9108 9.12947H12.9107C12.3042 9.12941 11.8104 8.63573 11.8104 8.02893V7.32127H14.0114V8.02893ZM14.7117 8.02893V7.32127H16.9124V8.02893C16.9124 8.63566 16.4187 9.12947 15.812 9.12947C15.2107 9.12947 14.7202 8.64441 14.7117 8.04492V8.02893ZM11.3739 12.8299C11.3739 12.7472 11.4412 12.6798 11.524 12.6798H12.8799V16.9119H11.3739V12.8299ZM13.58 16.9119V12.6798H14.9361C15.0189 12.6798 15.0862 12.7472 15.0862 12.8299V16.9119H13.58ZM3.9983 4.71155H16.0213L16.7533 6.62121H3.26646L3.9983 4.71155Z" fill="#070707" stroke="#070707" stroke-width="0.2"/>
<path d="M14.4671 14.7135H14.1771C13.9836 14.7135 13.827 14.8703 13.827 15.0636C13.827 15.2569 13.9836 15.4137 14.1771 15.4137H14.4671C14.6605 15.4137 14.8171 15.2569 14.8171 15.0636C14.8171 14.8703 14.6605 14.7135 14.4671 14.7135Z" fill="#070707" stroke="#070707" stroke-width="0.2"/>
<path d="M8.62922 15.413C9.09822 15.413 9.47948 15.0317 9.47948 14.5627V12.8294C9.47948 12.3604 9.09822 11.9791 8.62922 11.9791H5.08339C4.61439 11.9791 4.23313 12.3604 4.23313 12.8294V14.5627C4.23313 15.0317 4.61439 15.413 5.08339 15.413H8.62922ZM4.93331 14.5627V12.8294C4.93331 12.7467 5.00074 12.6793 5.08339 12.6793H8.62922C8.71187 12.6793 8.77931 12.7467 8.77931 12.8294V14.5627C8.77931 14.6453 8.71187 14.7128 8.62922 14.7128H5.08339C5.00074 14.7128 4.93331 14.6453 4.93331 14.5627Z" fill="#070707" stroke="#070707" stroke-width="0.2"/>
</svg>
