<svg width="33" height="33" viewBox="0 0 33 33" fill="none" xmlns="http://www.w3.org/2000/svg">
<path d="M18 21.8346V8.5013C18 7.76492 17.4031 7.16797 16.6667 7.16797H6.00001C5.26363 7.16797 4.66667 7.76492 4.66667 8.5013V21.8346C4.66667 22.571 5.26363 23.168 6.00001 23.168H7.33334M18 21.8346C18 22.571 17.4031 23.168 16.6667 23.168H12.6667M18 21.8346L18 11.168C18 10.4316 18.597 9.83464 19.3333 9.83464H22.7811C23.1347 9.83464 23.4738 9.97511 23.7239 10.2252L28.2761 14.7774C28.5262 15.0275 28.6667 15.3666 28.6667 15.7203V21.8346C28.6667 22.571 28.0697 23.168 27.3333 23.168H26M18 21.8346C18 22.571 18.597 23.168 19.3333 23.168H20.6667M7.33334 23.168C7.33334 24.6407 8.52724 25.8346 10 25.8346C11.4728 25.8346 12.6667 24.6407 12.6667 23.168M7.33334 23.168C7.33334 21.6952 8.52724 20.5013 10 20.5013C11.4728 20.5013 12.6667 21.6952 12.6667 23.168M20.6667 23.168C20.6667 24.6407 21.8606 25.8346 23.3333 25.8346C24.8061 25.8346 26 24.6407 26 23.168M20.6667 23.168C20.6667 21.6952 21.8606 20.5013 23.3333 20.5013C24.8061 20.5013 26 21.6952 26 23.168" stroke="#0B3C7F" stroke-width="2"/>
</svg>
