<svg width="33" height="33" viewBox="0 0 33 33" fill="none" xmlns="http://www.w3.org/2000/svg">
<path d="M16.3333 11.1667V28.5M16.3333 11.1667C16.3333 11.1667 16.3333 9.1763 16.3333 8.5C16.3333 7.02724 17.5272 5.83333 19 5.83333C20.4728 5.83333 21.6667 7.02724 21.6667 8.5C21.6667 9.97276 20.4728 11.1667 19 11.1667C18.2035 11.1667 16.3333 11.1667 16.3333 11.1667ZM16.3333 11.1667C16.3333 11.1667 16.3333 8.58388 16.3333 7.83333C16.3333 5.99238 14.841 4.5 13 4.5C11.1591 4.5 9.66668 5.99238 9.66668 7.83333C9.66668 9.67428 11.1591 11.1667 13 11.1667C14.0904 11.1667 16.3333 11.1667 16.3333 11.1667ZM7.00001 16.5H25.6667M7.00001 16.5C5.52725 16.5 4.33334 15.3061 4.33334 13.8333C4.33334 12.3606 5.52725 11.1667 7.00001 11.1667H25.6667C27.1394 11.1667 28.3333 12.3606 28.3333 13.8333C28.3333 15.3061 27.1394 16.5 25.6667 16.5M7.00001 16.5L7.00001 25.8333C7.00001 27.3061 8.19392 28.5 9.66668 28.5H23C24.4728 28.5 25.6667 27.3061 25.6667 25.8333V16.5" stroke="#0B3C7F" stroke-width="2" stroke-linecap="round" stroke-linejoin="round"/>
</svg>
