<svg width="32" height="33" viewBox="0 0 32 33" fill="none" xmlns="http://www.w3.org/2000/svg">
<path d="M22.6667 12.5013V9.83464C22.6667 8.36188 21.4728 7.16797 20 7.16797H6.66667C5.19391 7.16797 4 8.36188 4 9.83464V17.8346C4 19.3074 5.19391 20.5013 6.66667 20.5013H9.33333M12 25.8346H25.3333C26.8061 25.8346 28 24.6407 28 23.168V15.168C28 13.6952 26.8061 12.5013 25.3333 12.5013H12C10.5272 12.5013 9.33333 13.6952 9.33333 15.168V23.168C9.33333 24.6407 10.5272 25.8346 12 25.8346ZM21.3333 19.168C21.3333 20.6407 20.1394 21.8346 18.6667 21.8346C17.1939 21.8346 16 20.6407 16 19.168C16 17.6952 17.1939 16.5013 18.6667 16.5013C20.1394 16.5013 21.3333 17.6952 21.3333 19.168Z" stroke="#0B3C7F" stroke-width="2" stroke-linecap="round" stroke-linejoin="round"/>
</svg>
